<?xml version="1.0" encoding="UTF-8"?>
<svg width="420.26" height="352.93" version="1.1" viewBox="0 0 420.26 352.93" xml:space="preserve" xmlns="http://www.w3.org/2000/svg" xmlns:cc="http://creativecommons.org/ns#" xmlns:dc="http://purl.org/dc/elements/1.1/" xmlns:rdf="http://www.w3.org/1999/02/22-rdf-syntax-ns#"><metadata><rdf:RDF><cc:Work rdf:about=""><dc:format>image/svg+xml</dc:format><dc:type rdf:resource="http://purl.org/dc/dcmitype/StillImage"/><dc:title/></cc:Work></rdf:RDF></metadata><defs><clipPath id="clipPath18"><path d="M 0,841.89 H 595.28 V 0 H 0 Z"/></clipPath></defs><g transform="matrix(1.3333 0 0 -1.3333 -190.09 737.88)"><g clip-path="url(#clipPath18)"><g transform="translate(402.25,443.75)"><path d="m0 0c-1.375 11.125-17.75 13.125-35.125 7.483 24.125 32.483 35.125 70.392 25.375 77.517s-44.5-18-44.5-18-3.125 32.5-12.375 39.75-22.625-2-34.75-25.477-15.891-59.773-15.891-59.773l29.641-63.426s49.75 9.426 62.375 14.301 26.625 16.5 25.25 27.625" fill="#fff"/></g><g transform="translate(402.25,443.75)"><path d="m0 0c-1.375 11.125-17.75 13.125-35.125 7.483 24.125 32.483 35.125 70.392 25.375 77.517s-44.5-18-44.5-18-3.125 32.5-12.375 39.75-22.625-2-34.75-25.477-15.891-59.773-15.891-59.773l29.641-63.426s49.75 9.426 62.375 14.301 26.625 16.5 25.25 27.625z" fill="none" stroke="#231f20" stroke-linecap="round" stroke-linejoin="round" stroke-miterlimit="10" stroke-width=".992"/></g><g transform="translate(402.33 442.8)"><path d="m0 0c-17.579-1.546-44.07-6.234-44.07-6.234" fill="none" stroke="#231f20" stroke-linecap="round" stroke-linejoin="round" stroke-miterlimit="10" stroke-width=".992"/></g><g transform="translate(367.12 451.23)"><path d="m0 0c-5.75-6.983-19.125-19.583-19.125-19.583l-11-10.705" fill="none" stroke="#231f20" stroke-linecap="round" stroke-linejoin="round" stroke-miterlimit="10" stroke-width=".992"/></g><g transform="translate(392.06 529.04)"><path d="m0 0-68.42-104.54" fill="none" stroke="#231f20" stroke-linecap="round" stroke-linejoin="round" stroke-miterlimit="10" stroke-width=".992"/></g><g transform="translate(378,418.75)"><path d="m0 0 3.286 2.795c-0.594 1.783-1.377 3.472-2.334 5.031l-3.702-1.326 1.443 4.396c-1.288 1.474-2.759 2.769-4.396 3.835l-3.38-2.648v4.421c-0.938 0.386-1.911 0.709-2.923 0.955-1.098 0.267-2.198 0.436-3.295 0.517l-1.282-3.059-2.403 2.991c-2.191-0.237-4.327-0.822-6.353-1.717l-0.328-3.524-3.155 1.607c-2.312-1.543-4.395-3.517-6.131-5.848l1.703-3.759-4.984-2.066c-0.514-1.255-0.947-2.566-1.278-3.931-3.222-13.28 3.866-26.401 15.834-29.306 0.847-0.206 1.696-0.348 2.543-0.442l1.783 5.661 3.352-5.661c8.697 1.733 17.401 9.238 19.827 19.23 0.676 2.786 0.893 5.564 0.712 8.244z" fill="#fff"/></g><g transform="translate(378,418.75)"><path d="m0 0 3.286 2.795c-0.594 1.783-1.377 3.472-2.334 5.031l-3.702-1.326 1.443 4.396c-1.288 1.474-2.759 2.769-4.396 3.835l-3.38-2.648v4.421c-0.938 0.386-1.911 0.709-2.923 0.955-1.098 0.267-2.198 0.436-3.295 0.517l-1.282-3.059-2.403 2.991c-2.191-0.237-4.327-0.822-6.353-1.717l-0.328-3.524-3.155 1.607c-2.312-1.543-4.395-3.517-6.131-5.848l1.703-3.759-4.984-2.066c-0.514-1.255-0.947-2.566-1.278-3.931-3.222-13.28 3.866-26.401 15.834-29.306 0.847-0.206 1.696-0.348 2.543-0.442l1.783 5.661 3.352-5.661c8.697 1.733 17.401 9.238 19.827 19.23 0.676 2.786 0.893 5.564 0.712 8.244z" fill="none" stroke="#231f20" stroke-linecap="round" stroke-linejoin="round" stroke-miterlimit="10" stroke-width=".992"/></g><g transform="translate(371.59 413.15)"><path d="m0 0c0-6.696-5.429-12.125-12.125-12.125s-12.125 5.429-12.125 12.125 5.429 12.125 12.125 12.125 12.125-5.429 12.125-12.125" fill="#fff"/></g><g transform="translate(371.59 413.15)"><path d="m0 0c0-6.696-5.429-12.125-12.125-12.125s-12.125 5.429-12.125 12.125 5.429 12.125 12.125 12.125 12.125-5.429 12.125-12.125z" fill="none" stroke="#231f20" stroke-linecap="round" stroke-linejoin="round" stroke-miterlimit="10" stroke-width=".992"/></g><g transform="translate(364.02 413.12)"><path d="m0 0c0-2.692-2.183-4.875-4.875-4.875s-4.875 2.183-4.875 4.875 2.183 4.875 4.875 4.875 4.875-2.183 4.875-4.875" fill="#fff"/></g><g transform="translate(364.02 413.12)"><path d="m0 0c0-2.692-2.183-4.875-4.875-4.875s-4.875 2.183-4.875 4.875 2.183 4.875 4.875 4.875 4.875-2.183 4.875-4.875z" fill="none" stroke="#231f20" stroke-linecap="round" stroke-linejoin="round" stroke-miterlimit="10" stroke-width=".992"/></g><g transform="translate(386.88 365)"><path d="m0 0 2.941-0.98c0.697 1.072 1.257 2.193 1.68 3.34l-2.058 2.077 2.813 0.749c0.187 1.11 0.249 2.22 0.181 3.31l-2.994 0.879 2.514 1.927c-0.306 1.059-0.756 2.069-1.342 3.012l-2.673-1.376 1.432 3.037c-0.056 0.063-0.103 0.131-0.162 0.194-0.933 0.993-2.005 1.788-3.171 2.393l-1.974-2.5-0.755 3.527c-3.626 0.906-7.746 0.268-11.391-1.853l0.584-3.016-2.777 1.515c-0.357-0.286-0.709-0.582-1.049-0.901-5.102-4.786-6.68-11.747-4.341-17.091l2.792 1.007-1.792-2.806c0.359-0.54 0.749-1.065 1.205-1.55 0.66-0.705 1.394-1.306 2.178-1.815l2.221 2.223s0.029-1.904 0.123-3.405c1.349-0.504 2.794-0.767 4.274-0.812l1.416 2.915 1.599-2.693c1.364 0.237 2.722 0.66 4.041 1.268l-0.202 3.238 2.533-1.943c0.817 0.543 1.606 1.159 2.351 1.859 0.537 0.503 1.022 1.04 1.481 1.588z" fill="#fff"/></g><g transform="translate(386.88 365)"><path d="m0 0 2.941-0.98c0.697 1.072 1.257 2.193 1.68 3.34l-2.058 2.077 2.813 0.749c0.187 1.11 0.249 2.22 0.181 3.31l-2.994 0.879 2.514 1.927c-0.306 1.059-0.756 2.069-1.342 3.012l-2.673-1.376 1.432 3.037c-0.056 0.063-0.103 0.131-0.162 0.194-0.933 0.993-2.005 1.788-3.171 2.393l-1.974-2.5-0.755 3.527c-3.626 0.906-7.746 0.268-11.391-1.853l0.584-3.016-2.777 1.515c-0.357-0.286-0.709-0.582-1.049-0.901-5.102-4.786-6.68-11.747-4.341-17.091l2.792 1.007-1.792-2.806c0.359-0.54 0.749-1.065 1.205-1.55 0.66-0.705 1.394-1.306 2.178-1.815l2.221 2.223s0.029-1.904 0.123-3.405c1.349-0.504 2.794-0.767 4.274-0.812l1.416 2.915 1.599-2.693c1.364 0.237 2.722 0.66 4.041 1.268l-0.202 3.238 2.533-1.943c0.817 0.543 1.606 1.159 2.351 1.859 0.537 0.503 1.022 1.04 1.481 1.588z" fill="none" stroke="#231f20" stroke-linecap="round" stroke-linejoin="round" stroke-miterlimit="10" stroke-width=".992"/></g><g transform="translate(387,391.25)"><path d="m0 0h4.728c0.846 1.73 1.407 3.535 1.7 5.346l-3.553 2.154 3.678 2.543c-0.168 1.463-0.532 2.887-1.098 4.229-1.634-0.13-3.83-0.334-3.83-0.334l2.074 3.402c-0.314 0.418-0.65 0.824-1.015 1.213-1.07 1.136-2.293 2.049-3.615 2.767l-2.069-2.258v3.188c-2.292 0.824-4.794 1.1-7.323 0.841l-0.427-2.904-3.635 2.03c-2.118-0.708-4.18-1.796-6.07-3.269l0.904-3.885-3.587 1.394c-1.56-1.716-2.767-3.618-3.633-5.603l1.709-2.541-2.723-0.413c-0.527-2.075-0.694-4.18-0.47-6.214l3.193-0.374-2.627-2.421c0.59-1.969 1.587-3.799 2.984-5.395l2.742 1.129s-0.441-1.435-0.864-2.923c1.806-1.432 3.902-2.383 6.14-2.863l2.312 3.786s0.671-2.313 1.183-4.155c2.348-1e-3 4.754 0.463 7.067 1.404v3.501s1.417-1.249 2.539-2.243c1.357 0.788 2.662 1.73 3.868 2.865 0.677 0.637 1.282 1.315 1.854 2.01z" fill="#fff"/></g><g transform="translate(387,391.25)"><path d="m0 0h4.728c0.846 1.73 1.407 3.535 1.7 5.346l-3.553 2.154 3.678 2.543c-0.168 1.463-0.532 2.887-1.098 4.229-1.634-0.13-3.83-0.334-3.83-0.334l2.074 3.402c-0.314 0.418-0.65 0.824-1.015 1.213-1.07 1.136-2.293 2.049-3.615 2.767l-2.069-2.258v3.188c-2.292 0.824-4.794 1.1-7.323 0.841l-0.427-2.904-3.635 2.03c-2.118-0.708-4.18-1.796-6.07-3.269l0.904-3.885-3.587 1.394c-1.56-1.716-2.767-3.618-3.633-5.603l1.709-2.541-2.723-0.413c-0.527-2.075-0.694-4.18-0.47-6.214l3.193-0.374-2.627-2.421c0.59-1.969 1.587-3.799 2.984-5.395l2.742 1.129s-0.441-1.435-0.864-2.923c1.806-1.432 3.902-2.383 6.14-2.863l2.312 3.786s0.671-2.313 1.183-4.155c2.348-1e-3 4.754 0.463 7.067 1.404v3.501s1.417-1.249 2.539-2.243c1.357 0.788 2.662 1.73 3.868 2.865 0.677 0.637 1.282 1.315 1.854 2.01z" fill="none" stroke="#231f20" stroke-linecap="round" stroke-linejoin="round" stroke-miterlimit="10" stroke-width=".992"/></g><g transform="translate(384.75,398.75)"><path d="m0 0c0-4.694-3.806-8.5-8.5-8.5s-8.5 3.806-8.5 8.5 3.806 8.5 8.5 8.5 8.5-3.806 8.5-8.5" fill="#fff"/></g><g transform="translate(384.75,398.75)"><path d="m0 0c0-4.694-3.806-8.5-8.5-8.5s-8.5 3.806-8.5 8.5 3.806 8.5 8.5 8.5 8.5-3.806 8.5-8.5z" fill="none" stroke="#231f20" stroke-linecap="round" stroke-linejoin="round" stroke-miterlimit="10" stroke-width=".992"/></g><g transform="translate(357.34 375.81)"><path d="m0 0-1.128 0.403c-0.526-0.895-0.833-1.935-0.833-3.049 0-0.17 0.012-0.339 0.025-0.507l1.155-0.472-1.008-0.429c0.308-1.283 1.02-2.409 2.002-3.227l0.943 0.589s-0.121-0.497-0.258-1.078c0.683-0.423 1.456-0.712 2.284-0.835 0.436 0.69 0.89 1.392 0.89 1.392s0.156-0.699 0.328-1.449c1.139 0.061 2.195 0.433 3.079 1.039-0.289 0.742-0.675 1.58-0.635 1.832 0.034 0.218 0.86-0.403 1.597-1.007 0.69 0.725 1.198 1.619 1.459 2.616l-1.056 1.057 1.25 0.252c3e-3 0.076 0.011 0.15 0.011 0.227 0 1.047-0.266 2.031-0.735 2.889l-1.839-0.243 0.499 1.9c-0.876 0.764-1.973 1.278-3.184 1.433l-1.002-1.618-1.091 1.523c-1.313-0.293-2.463-1.01-3.299-2.005z" fill="#fff"/></g><g transform="translate(357.34 375.81)"><path d="m0 0-1.128 0.403c-0.526-0.895-0.833-1.935-0.833-3.049 0-0.17 0.012-0.339 0.025-0.507l1.155-0.472-1.008-0.429c0.308-1.283 1.02-2.409 2.002-3.227l0.943 0.589s-0.121-0.497-0.258-1.078c0.683-0.423 1.456-0.712 2.284-0.835 0.436 0.69 0.89 1.392 0.89 1.392s0.156-0.699 0.328-1.449c1.139 0.061 2.195 0.433 3.079 1.039-0.289 0.742-0.675 1.58-0.635 1.832 0.034 0.218 0.86-0.403 1.597-1.007 0.69 0.725 1.198 1.619 1.459 2.616l-1.056 1.057 1.25 0.252c3e-3 0.076 0.011 0.15 0.011 0.227 0 1.047-0.266 2.031-0.735 2.889l-1.839-0.243 0.499 1.9c-0.876 0.764-1.973 1.278-3.184 1.433l-1.002-1.618-1.091 1.523c-1.313-0.293-2.463-1.01-3.299-2.005z" fill="none" stroke="#231f20" stroke-linecap="round" stroke-linejoin="round" stroke-miterlimit="10" stroke-width=".992"/></g><g transform="translate(350.67 386.16)"><path d="m0 0c-6.083 14-29.167 33.936-29.167 33.936l2.125 4.024-21.721 14.25-69.95-80.693s6.453-16.183 23.75-22.766c6.463-2.667 90.463-7.001 94.296 1.583s6.75 35.666 0.667 49.666" fill="#fff"/></g><g transform="translate(350.67 386.16)"><path d="m0 0c-6.083 14-29.167 33.936-29.167 33.936l2.125 4.024-21.721 14.25-69.95-80.693s6.453-16.183 23.75-22.766c6.463-2.667 90.463-7.001 94.296 1.583s6.75 35.666 0.667 49.666z" fill="none" stroke="#231f20" stroke-linecap="round" stroke-linejoin="round" stroke-miterlimit="10" stroke-width=".992"/></g><g transform="translate(296.59 374.68)"><path d="m0 0 11.158 5.699" fill="none" stroke="#231f20" stroke-linecap="round" stroke-linejoin="round" stroke-miterlimit="10" stroke-width=".992"/></g><g transform="translate(336.62 371.17)"><path d="m0 0s2.634-19.293-4.866-37.168" fill="none" stroke="#231f20" stroke-linecap="round" stroke-linejoin="round" stroke-miterlimit="10" stroke-width=".992"/></g><g transform="translate(354.88 398.64)"><path d="m0 0-3.218 1.522 2.819 2.369c-0.43 2.382-1.195 4.691-2.306 6.847l-4.097-0.929s0.921 2.648 1.647 4.721c-0.626 0.791-1.302 1.554-2.042 2.275-0.679 0.66-1.391 1.266-2.127 1.829l-4.644-3.029 0.612 5.506c-1.557 0.752-3.185 1.33-4.859 1.731l-2.42-3.987-1.336 4.59c-1.979 0.167-3.991 0.104-5.995-0.182l-0.502-4.408-3.154 3.63c-2.188-0.62-4.334-1.509-6.382-2.675l0.369-4.622-3.8 2.338c-1.126-0.867-2.207-1.825-3.231-2.878-0.972-0.999-1.856-2.046-2.658-3.132 0.838-1.396 2.343-3.876 2.522-4.001 0.173-0.12-3.115-0.242-5.164-0.305-0.934-1.862-1.628-3.795-2.13-5.751l4.211-2.774-5.086-3.323c-0.06-2.266 0.158-4.516 0.676-6.688 2.319 0.222 5.577 0.514 5.577 0.514l-3.769-5.56c0.76-1.552 1.693-3.029 2.802-4.403l4.217 1.88s-0.785-2.55-1.461-4.759c1.261-1.112 2.616-2.063 4.041-2.861l2.753 2.286s-0.049-1.838-0.067-3.575c2.379-0.961 4.898-1.531 7.472-1.72l2.178 3.962s1.529-2.239 2.589-3.885c2.6 0.278 5.193 0.938 7.694 1.97 0.198 1.994 0.468 4.665 0.468 4.665l3.04-2.934c1.752 1.017 3.427 2.238 4.996 3.653l-0.87 4.781s2.098-0.741 4.068-1.431c1.938 2.372 3.447 4.956 4.531 7.643-0.976 1.54-1.932 3.038-1.932 3.038s1.742 0.71 3.339 1.488c0.481 2.183 0.688 4.392 0.629 6.574" fill="#fff"/></g><g transform="translate(354.88 398.64)"><path d="m0 0-3.218 1.522 2.819 2.369c-0.43 2.382-1.195 4.691-2.306 6.847l-4.097-0.929s0.921 2.648 1.647 4.721c-0.626 0.791-1.302 1.554-2.042 2.275-0.679 0.66-1.391 1.266-2.127 1.829l-4.644-3.029 0.612 5.506c-1.557 0.752-3.185 1.33-4.859 1.731l-2.42-3.987-1.336 4.59c-1.979 0.167-3.991 0.104-5.995-0.182l-0.502-4.408-3.154 3.63c-2.188-0.62-4.334-1.509-6.382-2.675l0.369-4.622-3.8 2.338c-1.126-0.867-2.207-1.825-3.231-2.878-0.972-0.999-1.856-2.046-2.658-3.132 0.838-1.396 2.343-3.876 2.522-4.001 0.173-0.12-3.115-0.242-5.164-0.305-0.934-1.862-1.628-3.795-2.13-5.751l4.211-2.774-5.086-3.323c-0.06-2.266 0.158-4.516 0.676-6.688 2.319 0.222 5.577 0.514 5.577 0.514l-3.769-5.56c0.76-1.552 1.693-3.029 2.802-4.403l4.217 1.88s-0.785-2.55-1.461-4.759c1.261-1.112 2.616-2.063 4.041-2.861l2.753 2.286s-0.049-1.838-0.067-3.575c2.379-0.961 4.898-1.531 7.472-1.72l2.178 3.962s1.529-2.239 2.589-3.885c2.6 0.278 5.193 0.938 7.694 1.97 0.198 1.994 0.468 4.665 0.468 4.665l3.04-2.934c1.752 1.017 3.427 2.238 4.996 3.653l-0.87 4.781s2.098-0.741 4.068-1.431c1.938 2.372 3.447 4.956 4.531 7.643-0.976 1.54-1.932 3.038-1.932 3.038s1.742 0.71 3.339 1.488c0.481 2.183 0.688 4.392 0.629 6.574z" fill="none" stroke="#231f20" stroke-linecap="round" stroke-linejoin="round" stroke-miterlimit="10" stroke-width=".992"/></g><g transform="translate(342.77 397.33)"><path d="m0 0c0-7.604-6.163-13.767-13.767-13.767-7.603 0-13.766 6.163-13.766 13.767s6.163 13.767 13.766 13.767c7.604 0 13.767-6.163 13.767-13.767" fill="#fff"/></g><g transform="translate(342.77 397.33)"><path d="m0 0c0-7.604-6.163-13.767-13.767-13.767-7.603 0-13.766 6.163-13.766 13.767s6.163 13.767 13.766 13.767c7.604 0 13.767-6.163 13.767-13.767z" fill="none" stroke="#231f20" stroke-linecap="round" stroke-linejoin="round" stroke-miterlimit="10" stroke-width=".992"/></g><g transform="translate(229.82 420.53)"><path d="m0 0-1.752 6.246 5.998-2.562c3.252 3.329 5.697 7.214 7.227 11.349l-3.392 3.13 4.862 2.398c0.393 2.38 0.49 4.792 0.27 7.184-2.221 0.936-5.225 2.199-5.382 2.252-0.164 0.054 2.489 1.856 4.321 3.166-0.515 1.685-1.194 3.34-2.061 4.94-0.852 1.571-1.848 3.017-2.955 4.348l-4.221-2.329 1.647 5.026c-2.007 1.824-4.271 3.331-6.716 4.503l-3.015-2.904 0.315 4.038c-2.591 0.938-5.336 1.522-8.155 1.739l-1.743-4.611-2.077 4.684c-2.959-0.122-5.956-0.645-8.902-1.598v-4.419l-3.898 2.882c-0.664-0.307-1.325-0.629-1.978-0.983-2.606-1.414-4.944-3.114-7.005-5.023l2.61-4.709-5.868 1.229c-1.87-2.309-3.391-4.822-4.533-7.457l4.818-4.356h-6.332c-0.666-2.516-1.005-5.092-0.982-7.665l5.314-1.501-4.814-3.439c0.489-2.533 1.344-5.018 2.594-7.392l4.72 1.914-2.468-5.477c1.762-2.357 3.872-4.368 6.238-6.01l3.73 2.487-0.82-4.263c2.686-1.417 5.613-2.408 8.667-2.961l2.653 3.307 0.884-3.743c2.748-0.181 5.561-8e-3 8.366 0.532l1.666 6.544 4.859-4.589c1.13 0.467 2.251 0.99 3.353 1.588 1.396 0.756 2.715 1.597 3.957 2.505" fill="#fff"/></g><g transform="translate(229.82 420.53)"><path d="m0 0-1.752 6.246 5.998-2.562c3.252 3.329 5.697 7.214 7.227 11.349l-3.392 3.13 4.862 2.398c0.393 2.38 0.49 4.792 0.27 7.184-2.221 0.936-5.225 2.199-5.382 2.252-0.164 0.054 2.489 1.856 4.321 3.166-0.515 1.685-1.194 3.34-2.061 4.94-0.852 1.571-1.848 3.017-2.955 4.348l-4.221-2.329 1.647 5.026c-2.007 1.824-4.271 3.331-6.716 4.503l-3.015-2.904 0.315 4.038c-2.591 0.938-5.336 1.522-8.155 1.739l-1.743-4.611-2.077 4.684c-2.959-0.122-5.956-0.645-8.902-1.598v-4.419l-3.898 2.882c-0.664-0.307-1.325-0.629-1.978-0.983-2.606-1.414-4.944-3.114-7.005-5.023l2.61-4.709-5.868 1.229c-1.87-2.309-3.391-4.822-4.533-7.457l4.818-4.356h-6.332c-0.666-2.516-1.005-5.092-0.982-7.665l5.314-1.501-4.814-3.439c0.489-2.533 1.344-5.018 2.594-7.392l4.72 1.914-2.468-5.477c1.762-2.357 3.872-4.368 6.238-6.01l3.73 2.487-0.82-4.263c2.686-1.417 5.613-2.408 8.667-2.961l2.653 3.307 0.884-3.743c2.748-0.181 5.561-8e-3 8.366 0.532l1.666 6.544 4.859-4.589c1.13 0.467 2.251 0.99 3.353 1.588 1.396 0.756 2.715 1.597 3.957 2.505z" fill="none" stroke="#231f20" stroke-linecap="round" stroke-linejoin="round" stroke-miterlimit="10" stroke-width=".992"/></g><g transform="translate(233.48 443.79)"><path d="m0 0c0-10.972-8.894-19.866-19.866-19.866-10.971 0-19.865 8.894-19.865 19.866s8.894 19.866 19.865 19.866c10.972 0 19.866-8.894 19.866-19.866" fill="#fff"/></g><g transform="translate(233.48 443.79)"><path d="m0 0c0-10.972-8.894-19.866-19.866-19.866-10.971 0-19.865 8.894-19.865 19.866s8.894 19.866 19.865 19.866c10.972 0 19.866-8.894 19.866-19.866z" fill="none" stroke="#231f20" stroke-linecap="round" stroke-linejoin="round" stroke-miterlimit="10" stroke-width=".992"/></g><g transform="translate(303.25 446.33)"><path d="m0 0c-6.5 18.833-31.125 26.917-31.125 26.917l-55.125-7.25s-15-8.125-26.75-20.146-34.5-45.729-36.75-65.229 4.75-42.25 17-47.875 36.375 8.25 44.875 16.875c14.75 0.5 26.875 13.5 26.875 13.5s21.375 8.875 39.875 20c20.25 15.75 27.625 44.375 21.125 63.208" fill="#fff"/></g><g transform="translate(303.25 446.33)"><path d="m0 0c-6.5 18.833-31.125 26.917-31.125 26.917l-55.125-7.25s-15-8.125-26.75-20.146-34.5-45.729-36.75-65.229 4.75-42.25 17-47.875 36.375 8.25 44.875 16.875c14.75 0.5 26.875 13.5 26.875 13.5s21.375 8.875 39.875 20c20.25 15.75 27.625 44.375 21.125 63.208z" fill="none" stroke="#231f20" stroke-linecap="round" stroke-linejoin="round" stroke-miterlimit="10" stroke-width=".992"/></g><g transform="translate(262.1 401.04)"><path d="m0 0s-8.958 19.905-21.716 30.905" fill="none" stroke="#231f20" stroke-linecap="round" stroke-linejoin="round" stroke-miterlimit="10" stroke-width=".992"/></g><g transform="translate(236.52 371.24)"><path d="m0 0s3.479 21.257-16.896 40.507-32.434 25.132-41.592 19.066" fill="none" stroke="#231f20" stroke-linecap="round" stroke-linejoin="round" stroke-miterlimit="10" stroke-width=".992"/></g><g transform="translate(282.12 383.12)"><path d="m0 0s10.75 23.875 4.375 43.875-18.726 28.62-18.726 28.62" fill="none" stroke="#231f20" stroke-linecap="round" stroke-linejoin="round" stroke-miterlimit="10" stroke-width=".992"/></g><g transform="translate(159.66 369.03)"><path d="m0 0c1.54 23.612 14.917 47.346 26.922 61.682 12.606 15.053 26.485 25.255 26.624 25.356 0.632 0.462 0.77 1.349 0.309 1.981-0.46 0.631-1.347 0.77-1.98 0.309-0.142-0.103-14.289-10.496-27.126-25.826-12.293-14.681-25.994-39.023-27.578-63.318-0.879-13.478 4.274-25.395 8.919-33.214 1.477-1.37 3.059-2.479 4.745-3.253 0.349-0.16 0.709-0.299 1.076-0.428-4.696 6.603-12.958 20.664-11.911 36.711" fill="#231f20"/></g><g transform="translate(173 511.38)"><path d="m0 0-2.125-5.375 56.25-28 1.415 3.799z" fill="#fff"/></g><g transform="translate(173 511.38)"><path d="m0 0-2.125-5.375 56.25-28 1.415 3.799z" fill="none" stroke="#231f20" stroke-linecap="round" stroke-linejoin="round" stroke-miterlimit="10" stroke-width=".992"/></g><g transform="translate(269.62 484.93)"><path d="m0 0-5.376-1.56-23.866 28.001-3.258-2.75 24.75-27.875-4.125-6.5s3.125-4.25 3.5-4.375 8.035-1.555 8.035-1.555 6.59 5.555 6.59 5.93z" fill="#fff"/></g><g transform="translate(269.62 484.93)"><path d="m0 0-5.376-1.56-23.866 28.001-3.258-2.75 24.75-27.875-4.125-6.5s3.125-4.25 3.5-4.375 8.035-1.555 8.035-1.555 6.59 5.555 6.59 5.93z" fill="none" stroke="#231f20" stroke-linecap="round" stroke-linejoin="round" stroke-miterlimit="10" stroke-width=".992"/></g><g transform="translate(258.17 432.34)"><path d="m0 0-1.752 6.246 5.998-2.562c3.252 3.329 5.697 7.214 7.227 11.349l-3.392 3.13 4.862 2.398c0.393 2.38 0.49 4.792 0.27 7.184-2.221 0.936-5.225 2.199-5.382 2.252-0.164 0.054 2.489 1.856 4.321 3.166-0.515 1.685-1.194 3.34-2.061 4.94-0.852 1.571-1.848 3.017-2.955 4.348l-4.221-2.329 1.647 5.026c-2.007 1.824-4.271 3.331-6.716 4.503l-3.015-2.904 0.315 4.038c-2.591 0.938-5.336 1.522-8.155 1.739l-1.743-4.611-2.077 4.684c-2.959-0.122-5.956-0.645-8.902-1.598v-4.419l-3.898 2.882c-0.664-0.307-1.325-0.629-1.978-0.983-2.606-1.414-4.944-3.114-7.005-5.023l2.61-4.709-5.868 1.229c-1.87-2.309-3.391-4.822-4.533-7.457l4.818-4.356h-6.332c-0.666-2.516-1.005-5.092-0.982-7.665l5.314-1.501-4.814-3.439c0.489-2.533 1.344-5.018 2.594-7.392l4.72 1.914-2.468-5.477c1.762-2.357 3.872-4.368 6.238-6.01l3.73 2.487-0.82-4.263c2.686-1.417 5.613-2.409 8.667-2.961l2.653 3.307 0.884-3.743c2.748-0.181 5.561-8e-3 8.366 0.532l1.666 6.544 4.859-4.589c1.13 0.466 2.251 0.989 3.353 1.588 1.396 0.756 2.715 1.597 3.957 2.505" fill="#fff"/></g><g transform="translate(258.17 432.34)"><path d="m0 0-1.752 6.246 5.998-2.562c3.252 3.329 5.697 7.214 7.227 11.349l-3.392 3.13 4.862 2.398c0.393 2.38 0.49 4.792 0.27 7.184-2.221 0.936-5.225 2.199-5.382 2.252-0.164 0.054 2.489 1.856 4.321 3.166-0.515 1.685-1.194 3.34-2.061 4.94-0.852 1.571-1.848 3.017-2.955 4.348l-4.221-2.329 1.647 5.026c-2.007 1.824-4.271 3.331-6.716 4.503l-3.015-2.904 0.315 4.038c-2.591 0.938-5.336 1.522-8.155 1.739l-1.743-4.611-2.077 4.684c-2.959-0.122-5.956-0.645-8.902-1.598v-4.419l-3.898 2.882c-0.664-0.307-1.325-0.629-1.978-0.983-2.606-1.414-4.944-3.114-7.005-5.023l2.61-4.709-5.868 1.229c-1.87-2.309-3.391-4.822-4.533-7.457l4.818-4.356h-6.332c-0.666-2.516-1.005-5.092-0.982-7.665l5.314-1.501-4.814-3.439c0.489-2.533 1.344-5.018 2.594-7.392l4.72 1.914-2.468-5.477c1.762-2.357 3.872-4.368 6.238-6.01l3.73 2.487-0.82-4.263c2.686-1.417 5.613-2.409 8.667-2.961l2.653 3.307 0.884-3.743c2.748-0.181 5.561-8e-3 8.366 0.532l1.666 6.544 4.859-4.589c1.13 0.466 2.251 0.989 3.353 1.588 1.396 0.756 2.715 1.597 3.957 2.505z" fill="none" stroke="#231f20" stroke-linecap="round" stroke-linejoin="round" stroke-miterlimit="10" stroke-width=".992"/></g><g transform="translate(258.52 456.19)"><path d="m0 0c0-8.986-7.285-16.271-16.271-16.271s-16.271 7.285-16.271 16.271 7.285 16.271 16.271 16.271 16.271-7.285 16.271-16.271" fill="#fff"/></g><g transform="translate(258.52 456.19)"><path d="m0 0c0-8.986-7.285-16.271-16.271-16.271s-16.271 7.285-16.271 16.271 7.285 16.271 16.271 16.271 16.271-7.285 16.271-16.271z" fill="none" stroke="#231f20" stroke-miterlimit="10" stroke-width=".992"/></g><g transform="translate(246.56 456.19)"><path d="m0 0c0-2.382-1.931-4.312-4.312-4.312-2.382 0-4.313 1.93-4.313 4.312s1.931 4.312 4.313 4.312c2.381 0 4.312-1.93 4.312-4.312" fill="#fff"/></g><g transform="translate(246.56 456.19)"><path d="m0 0c0-2.382-1.931-4.312-4.312-4.312-2.382 0-4.313 1.93-4.313 4.312s1.931 4.312 4.313 4.312c2.381 0 4.312-1.93 4.312-4.312z" fill="none" stroke="#231f20" stroke-miterlimit="10" stroke-width=".992"/></g><g transform="translate(254.83 454.75)"><path d="m0 0c0-1.013-0.821-1.833-1.833-1.833-1.013 0-1.834 0.82-1.834 1.833s0.821 1.833 1.834 1.833c1.012 0 1.833-0.82 1.833-1.833" fill="#fff"/></g><g transform="translate(254.83 454.75)"><path d="m0 0c0-1.013-0.821-1.833-1.833-1.833-1.013 0-1.834 0.82-1.834 1.833s0.821 1.833 1.834 1.833c1.012 0 1.833-0.82 1.833-1.833z" fill="none" stroke="#231f20" stroke-miterlimit="10" stroke-width=".992"/></g><g transform="translate(251.5 462.33)"><path d="m0 0c0-1.013-0.821-1.833-1.833-1.833-1.013 0-1.834 0.82-1.834 1.833s0.821 1.833 1.834 1.833c1.012 0 1.833-0.82 1.833-1.833" fill="#fff"/></g><g transform="translate(251.5 462.33)"><path d="m0 0c0-1.013-0.821-1.833-1.833-1.833-1.013 0-1.834 0.82-1.834 1.833s0.821 1.833 1.834 1.833c1.012 0 1.833-0.82 1.833-1.833z" fill="none" stroke="#231f20" stroke-miterlimit="10" stroke-width=".992"/></g><g transform="translate(247.83 446.33)"><path d="m0 0c0-1.013-0.821-1.833-1.833-1.833-1.013 0-1.834 0.82-1.834 1.833s0.821 1.833 1.834 1.833c1.012 0 1.833-0.82 1.833-1.833" fill="#fff"/></g><g transform="translate(247.83 446.33)"><path d="m0 0c0-1.013-0.821-1.833-1.833-1.833-1.013 0-1.834 0.82-1.834 1.833s0.821 1.833 1.834 1.833c1.012 0 1.833-0.82 1.833-1.833z" fill="none" stroke="#231f20" stroke-miterlimit="10" stroke-width=".992"/></g><g transform="translate(241.6 466)"><path d="m0 0c0-1.013-0.821-1.833-1.833-1.833-1.013 0-1.834 0.82-1.834 1.833s0.821 1.833 1.834 1.833c1.012 0 1.833-0.82 1.833-1.833" fill="#fff"/></g><g transform="translate(241.6 466)"><path d="m0 0c0-1.013-0.821-1.833-1.833-1.833-1.013 0-1.834 0.82-1.834 1.833s0.821 1.833 1.834 1.833c1.012 0 1.833-0.82 1.833-1.833z" fill="none" stroke="#231f20" stroke-miterlimit="10" stroke-width=".992"/></g><g transform="translate(234.27 458.02)"><path d="m0 0c0-1.013-0.821-1.833-1.833-1.833-1.013 0-1.834 0.82-1.834 1.833s0.821 1.833 1.834 1.833c1.012 0 1.833-0.82 1.833-1.833" fill="#fff"/></g><g transform="translate(234.27 458.02)"><path d="m0 0c0-1.013-0.821-1.833-1.833-1.833-1.013 0-1.834 0.82-1.834 1.833s0.821 1.833 1.834 1.833c1.012 0 1.833-0.82 1.833-1.833z" fill="none" stroke="#231f20" stroke-miterlimit="10" stroke-width=".992"/></g><g transform="translate(236.52 447.69)"><path d="m0 0c0-1.013-0.821-1.833-1.833-1.833-1.013 0-1.834 0.82-1.834 1.833s0.821 1.833 1.834 1.833c1.012 0 1.833-0.82 1.833-1.833" fill="#fff"/></g><g transform="translate(236.52 447.69)"><path d="m0 0c0-1.013-0.821-1.833-1.833-1.833-1.013 0-1.834 0.82-1.834 1.833s0.821 1.833 1.834 1.833c1.012 0 1.833-0.82 1.833-1.833z" fill="none" stroke="#231f20" stroke-miterlimit="10" stroke-width=".992"/></g><g transform="translate(172.12 515.88)"><path d="m0 0c-0.38-0.234-0.83-0.812-1.297-1.58-4.608 2.38-20.098 10.355-22.328 11.205-2.625 1-4.75-0.75-5.25-2.625s-0.125-5.361 2.75-6.743c2.352-1.131 16.578-7.274 21.678-9.472-0.154-0.592-0.264-1.123-0.303-1.535-0.25-2.625 3.664-3.125 4.207-1.625s4.168 9.153 4.168 9.153c0.375 2.125-2 4.222-3.625 3.222" fill="#fff"/></g><g transform="translate(172.12 515.88)"><path d="m0 0c-0.38-0.234-0.83-0.812-1.297-1.58-4.608 2.38-20.098 10.355-22.328 11.205-2.625 1-4.75-0.75-5.25-2.625s-0.125-5.361 2.75-6.743c2.352-1.131 16.578-7.274 21.678-9.472-0.154-0.592-0.264-1.123-0.303-1.535-0.25-2.625 3.664-3.125 4.207-1.625s4.168 9.153 4.168 9.153c0.375 2.125-2 4.222-3.625 3.222z" fill="none" stroke="#231f20" stroke-linecap="round" stroke-linejoin="round" stroke-miterlimit="10" stroke-width=".992"/></g><g transform="translate(169.38 509.62)"><path d="m0 0-21.5 11.375" fill="none" stroke="#231f20" stroke-linecap="round" stroke-linejoin="round" stroke-miterlimit="10" stroke-width=".992"/></g><g transform="translate(240.38 515.88)"><path d="m0 0c-0.25-0.106-0.54-0.282-0.853-0.501-3.291 4.416-15.239 20.384-18.807 24.251-4.151 4.5-9.223 6.875-11.973 5.375s-3.375-7.625 0-11c2.965-2.965 20.975-20.397 25.308-24.589-0.113-0.184-0.218-0.365-0.308-0.536-1.25-2.375 0.375-5.375 2.5-3.875s6 7.25 6 7.25c1.375 1.875-0.109 4.375-1.867 3.625" fill="#fff"/></g><g transform="translate(240.38 515.88)"><path d="m0 0c-0.25-0.106-0.54-0.282-0.853-0.501-3.291 4.416-15.239 20.384-18.807 24.251-4.151 4.5-9.223 6.875-11.973 5.375s-3.375-7.625 0-11c2.965-2.965 20.975-20.397 25.308-24.589-0.113-0.184-0.218-0.365-0.308-0.536-1.25-2.375 0.375-5.375 2.5-3.875s6 7.25 6 7.25c1.375 1.875-0.109 4.375-1.867 3.625z" fill="none" stroke="#231f20" stroke-linecap="round" stroke-linejoin="round" stroke-miterlimit="10" stroke-width=".992"/></g><g transform="translate(235.88 512.75)"><path d="m0 0-22.625 24.625" fill="none" stroke="#231f20" stroke-linecap="round" stroke-linejoin="round" stroke-miterlimit="10" stroke-width=".992"/></g><g transform="translate(153.58 364.87)"><path d="m0 0s10.169 4.88 21.044-5.245 14.609-25.816 14.609-25.816" fill="none" stroke="#231f20" stroke-linecap="round" stroke-linejoin="round" stroke-miterlimit="10" stroke-width=".992"/></g><g transform="translate(157.75 395.48)"><path d="m0 0c1.048 2.471 17.874 3.522 32.374-12.478s19.921-37.936 19.921-37.936" fill="none" stroke="#231f20" stroke-linecap="round" stroke-linejoin="round" stroke-miterlimit="10" stroke-width=".992"/></g><g transform="translate(215.38 349.62)"><path d="m0 0s22.875 23.875 26.875 27 35.25 21.625 39 26.25 6.625 14.625 6.625 14.625-15.875-9.625-26.375-16.875-19.25-24-19.25-24" fill="none" stroke="#231f20" stroke-linecap="round" stroke-linejoin="round" stroke-miterlimit="10" stroke-width=".992"/></g><g transform="translate(251.24 419.37)"><path d="m0 0c-9.866-5.998-22.605-18.336-22.605-18.336" fill="none" stroke="#231f20" stroke-linecap="round" stroke-linejoin="round" stroke-miterlimit="10" stroke-width=".992"/></g><g transform="translate(213.79 417.09)"><path d="m0 0c-12.042-6.843-27.229-30.536-27.229-30.536" fill="none" stroke="#231f20" stroke-linecap="round" stroke-linejoin="round" stroke-miterlimit="10" stroke-width=".992"/></g><g transform="translate(202.8 363.96)"><path d="m0 0s-10.004-10.952-19.778-15.145" fill="none" stroke="#231f20" stroke-linecap="round" stroke-linejoin="round" stroke-miterlimit="10" stroke-width=".992"/></g><g transform="translate(242.25 363.12)"><path d="m0 0c2.625 4.25 2.049 14.926 2.049 14.926" fill="none" stroke="#231f20" stroke-linecap="round" stroke-linejoin="round" stroke-miterlimit="10" stroke-width=".992"/></g><g transform="translate(261.51 371.97)"><path d="m0 0c4.737 5.525 4.471 19.869 4.471 19.869" fill="none" stroke="#231f20" stroke-linecap="round" stroke-linejoin="round" stroke-miterlimit="10" stroke-width=".992"/></g><g transform="translate(278.15 400.15)"><path d="m0 0-4.608 8.413" fill="none" stroke="#231f20" stroke-linecap="round" stroke-linejoin="round" stroke-miterlimit="10" stroke-width=".992"/></g><g transform="translate(267.06 392.54)"><path d="m0 0-4.957 8.498" fill="none" stroke="#231f20" stroke-linecap="round" stroke-linejoin="round" stroke-miterlimit="10" stroke-width=".992"/></g><g transform="translate(255.7 385.3)"><path d="m0 0-3.789 5.968" fill="none" stroke="#231f20" stroke-linecap="round" stroke-linejoin="round" stroke-miterlimit="10" stroke-width=".992"/></g><g transform="translate(298.77 454.75)"><path d="m0 0s-11.106-5.333-19.063-12.854" fill="none" stroke="#231f20" stroke-linecap="round" stroke-linejoin="round" stroke-miterlimit="10" stroke-width=".992"/></g><g transform="translate(298.54 450.33)"><path d="m0 0c0-0.497-0.404-0.9-0.901-0.9s-0.9 0.403-0.9 0.9 0.403 0.9 0.9 0.9 0.901-0.403 0.901-0.9" fill="#231f20"/></g><g transform="translate(337,424.5)"><path d="m0 0c0-0.497-0.404-0.9-0.9-0.9-0.498 0-0.901 0.403-0.901 0.9s0.403 0.9 0.901 0.9c0.496 0 0.9-0.403 0.9-0.9" fill="#231f20"/></g><g transform="translate(328.4 425.28)"><path d="m0 0c0-0.497-0.404-0.9-0.9-0.9-0.498 0-0.901 0.403-0.901 0.9s0.403 0.9 0.901 0.9c0.496 0 0.9-0.403 0.9-0.9" fill="#231f20"/></g><g transform="translate(323.89 428.95)"><path d="m0 0c0-0.497-0.404-0.9-0.9-0.9-0.498 0-0.901 0.403-0.901 0.9s0.403 0.9 0.901 0.9c0.496 0 0.9-0.403 0.9-0.9" fill="#231f20"/></g><g transform="translate(341.1 445)"><path d="m0 0c0-0.497-0.404-0.9-0.9-0.9-0.498 0-0.901 0.403-0.901 0.9s0.403 0.9 0.901 0.9c0.496 0 0.9-0.403 0.9-0.9" fill="#231f20"/></g><g transform="translate(370.87 459.4)"><path d="m0 0c0-0.497-0.404-0.9-0.9-0.9-0.498 0-0.901 0.403-0.901 0.9s0.403 0.9 0.901 0.9c0.496 0 0.9-0.403 0.9-0.9" fill="#231f20"/></g><g transform="translate(400.5 439.68)"><path d="m0 0c0-0.497-0.404-0.9-0.9-0.9-0.498 0-0.901 0.403-0.901 0.9s0.403 0.9 0.901 0.9c0.496 0 0.9-0.403 0.9-0.9" fill="#231f20"/></g><g transform="translate(396.29 431.44)"><path d="m0 0c0-0.497-0.404-0.9-0.9-0.9-0.498 0-0.901 0.403-0.901 0.9s0.403 0.9 0.901 0.9c0.496 0 0.9-0.403 0.9-0.9" fill="#231f20"/></g><g transform="translate(400.5 444.28)"><path d="m0 0c0-0.497-0.404-0.9-0.9-0.9-0.498 0-0.901 0.403-0.901 0.9s0.403 0.9 0.901 0.9c0.496 0 0.9-0.403 0.9-0.9" fill="#231f20"/></g><g transform="translate(384.9 451.23)"><path d="m0 0c0-0.497-0.404-0.9-0.9-0.9-0.498 0-0.901 0.403-0.901 0.9s0.403 0.9 0.901 0.9c0.496 0 0.9-0.403 0.9-0.9" fill="#231f20"/></g><g transform="translate(392.96 427.22)"><path d="m0 0c0-0.497-0.404-0.9-0.9-0.9-0.498 0-0.901 0.403-0.901 0.9s0.403 0.9 0.901 0.9c0.496 0 0.9-0.403 0.9-0.9" fill="#231f20"/></g><g transform="translate(384 420.95)"><path d="m0 0c0-0.497-0.404-0.9-0.9-0.9-0.498 0-0.901 0.403-0.901 0.9s0.403 0.9 0.901 0.9c0.496 0 0.9-0.403 0.9-0.9" fill="#231f20"/></g><g transform="translate(366.09 439.68)"><path d="m0 0c0-0.497-0.404-0.9-0.9-0.9-0.498 0-0.901 0.403-0.901 0.9s0.403 0.9 0.901 0.9c0.496 0 0.9-0.403 0.9-0.9" fill="#231f20"/></g><g transform="translate(375.84 451.23)"><path d="m0 0c0-0.497-0.404-0.9-0.9-0.9-0.498 0-0.901 0.403-0.901 0.9s0.403 0.9 0.901 0.9c0.496 0 0.9-0.403 0.9-0.9" fill="#231f20"/></g><g transform="translate(368.93 448.88)"><path d="m0 0c0-0.497-0.404-0.9-0.9-0.9-0.498 0-0.901 0.403-0.901 0.9s0.403 0.9 0.901 0.9c0.496 0 0.9-0.403 0.9-0.9" fill="#231f20"/></g><g transform="translate(375.3 436.88)"><path d="m0 0c0-0.497-0.404-0.9-0.9-0.9-0.498 0-0.901 0.403-0.901 0.9s0.403 0.9 0.901 0.9c0.496 0 0.9-0.403 0.9-0.9" fill="#231f20"/></g><g transform="translate(359.16 439.62)"><path d="m0 0c0-0.497-0.404-0.9-0.9-0.9-0.498 0-0.901 0.403-0.901 0.9s0.403 0.9 0.901 0.9c0.496 0 0.9-0.403 0.9-0.9" fill="#231f20"/></g><g transform="translate(379.75 473.66)"><path d="m0 0c0-0.497-0.404-0.9-0.9-0.9-0.498 0-0.901 0.403-0.901 0.9s0.403 0.9 0.901 0.9c0.496 0 0.9-0.403 0.9-0.9" fill="#231f20"/></g><g transform="translate(387.77 492.75)"><path d="m0 0c0-0.497-0.404-0.9-0.9-0.9-0.498 0-0.901 0.403-0.901 0.9s0.403 0.9 0.901 0.9c0.496 0 0.9-0.403 0.9-0.9" fill="#231f20"/></g><g transform="translate(389.58 498.46)"><path d="m0 0c0-0.497-0.404-0.9-0.9-0.9-0.498 0-0.901 0.403-0.901 0.9s0.403 0.9 0.901 0.9c0.496 0 0.9-0.403 0.9-0.9" fill="#231f20"/></g><g transform="translate(392.96 524.37)"><path d="m0 0c0-0.497-0.404-0.9-0.9-0.9-0.498 0-0.901 0.403-0.901 0.9s0.403 0.9 0.901 0.9c0.496 0 0.9-0.403 0.9-0.9" fill="#231f20"/></g><g transform="translate(387.07 525.79)"><path d="m0 0c0-0.497-0.404-0.9-0.9-0.9-0.498 0-0.901 0.403-0.901 0.9s0.403 0.9 0.901 0.9c0.496 0 0.9-0.403 0.9-0.9" fill="#231f20"/></g><g transform="translate(375.66 497.56)"><path d="m0 0c0-0.497-0.404-0.9-0.9-0.9-0.498 0-0.901 0.403-0.901 0.9s0.403 0.9 0.901 0.9c0.496 0 0.9-0.403 0.9-0.9" fill="#231f20"/></g><g transform="translate(370.87 490.95)"><path d="m0 0c0-0.497-0.404-0.9-0.9-0.9-0.498 0-0.901 0.403-0.901 0.9s0.403 0.9 0.901 0.9c0.496 0 0.9-0.403 0.9-0.9" fill="#231f20"/></g><g transform="translate(343.66 502.14)"><path d="m0 0c0-0.497-0.404-0.9-0.9-0.9-0.498 0-0.901 0.403-0.901 0.9s0.403 0.9 0.901 0.9c0.496 0 0.9-0.403 0.9-0.9" fill="#231f20"/></g><g transform="translate(338.8 496.66)"><path d="m0 0c0-0.497-0.404-0.9-0.9-0.9-0.498 0-0.901 0.403-0.901 0.9s0.403 0.9 0.901 0.9c0.496 0 0.9-0.403 0.9-0.9" fill="#231f20"/></g><g transform="translate(341.04 506.27)"><path d="m0 0c0-0.497-0.404-0.9-0.9-0.9-0.498 0-0.901 0.403-0.901 0.9s0.403 0.9 0.901 0.9c0.496 0 0.9-0.403 0.9-0.9" fill="#231f20"/></g><g transform="translate(345.87 516.82)"><path d="m0 0c0-0.497-0.404-0.9-0.9-0.9-0.498 0-0.901 0.403-0.901 0.9s0.403 0.9 0.901 0.9c0.496 0 0.9-0.403 0.9-0.9" fill="#231f20"/></g><g transform="translate(343.66 523.47)"><path d="m0 0c0-0.497-0.404-0.9-0.9-0.9-0.498 0-0.901 0.403-0.901 0.9s0.403 0.9 0.901 0.9c0.496 0 0.9-0.403 0.9-0.9" fill="#231f20"/></g><g transform="translate(342.76 529.94)"><path d="m0 0c0-0.497-0.404-0.9-0.9-0.9-0.498 0-0.901 0.403-0.901 0.9s0.403 0.9 0.901 0.9c0.496 0 0.9-0.403 0.9-0.9" fill="#231f20"/></g><g transform="translate(329.3 519.29)"><path d="m0 0c0-0.497-0.404-0.9-0.9-0.9-0.498 0-0.901 0.403-0.901 0.9s0.403 0.9 0.901 0.9c0.496 0 0.9-0.403 0.9-0.9" fill="#231f20"/></g><g transform="translate(329.79 527.21)"><path d="m0 0c0-0.497-0.404-0.9-0.9-0.9-0.498 0-0.901 0.403-0.901 0.9s0.403 0.9 0.901 0.9c0.496 0 0.9-0.403 0.9-0.9" fill="#231f20"/></g><g transform="translate(341.04 536.74)"><path d="m0 0c0-0.497-0.404-0.9-0.9-0.9-0.498 0-0.901 0.403-0.901 0.9s0.403 0.9 0.901 0.9c0.496 0 0.9-0.403 0.9-0.9" fill="#231f20"/></g><g transform="translate(332.28 549.55)"><path d="m0 0c0-0.497-0.404-0.9-0.9-0.9-0.498 0-0.901 0.403-0.901 0.9s0.403 0.9 0.901 0.9c0.496 0 0.9-0.403 0.9-0.9" fill="#231f20"/></g><g transform="translate(327.1 550.45)"><path d="m0 0c0-0.497-0.404-0.9-0.9-0.9-0.498 0-0.901 0.403-0.901 0.9s0.403 0.9 0.901 0.9c0.496 0 0.9-0.403 0.9-0.9" fill="#231f20"/></g><g transform="translate(321.68 511.29)"><path d="m0 0c0-0.497-0.404-0.9-0.9-0.9-0.498 0-0.901 0.403-0.901 0.9s0.403 0.9 0.901 0.9c0.496 0 0.9-0.403 0.9-0.9" fill="#231f20"/></g><g transform="translate(308.16 529.94)"><path d="m0 0c0-0.497-0.404-0.9-0.9-0.9-0.498 0-0.901 0.403-0.901 0.9s0.403 0.9 0.901 0.9c0.496 0 0.9-0.403 0.9-0.9" fill="#231f20"/></g><g transform="translate(304.84 522.57)"><path d="m0 0c0-0.497-0.404-0.9-0.9-0.9-0.498 0-0.901 0.403-0.901 0.9s0.403 0.9 0.901 0.9c0.496 0 0.9-0.403 0.9-0.9" fill="#231f20"/></g><g transform="translate(320.29 503.04)"><path d="m0 0c0-0.497-0.404-0.9-0.9-0.9-0.498 0-0.901 0.403-0.901 0.9s0.403 0.9 0.901 0.9c0.496 0 0.9-0.403 0.9-0.9" fill="#231f20"/></g><g transform="translate(319.39 496.37)"><path d="m0 0c0-0.497-0.404-0.9-0.9-0.9-0.498 0-0.901 0.403-0.901 0.9s0.403 0.9 0.901 0.9c0.496 0 0.9-0.403 0.9-0.9" fill="#231f20"/></g><g transform="translate(323.7 488.05)"><path d="m0 0c0-0.497-0.404-0.9-0.9-0.9-0.498 0-0.901 0.403-0.901 0.9s0.403 0.9 0.901 0.9c0.496 0 0.9-0.403 0.9-0.9" fill="#231f20"/></g><g transform="translate(309.15 437.48)"><path d="m0 0c0-0.497-0.404-0.9-0.9-0.9-0.498 0-0.901 0.403-0.901 0.9s0.403 0.9 0.901 0.9c0.496 0 0.9-0.403 0.9-0.9" fill="#231f20"/></g><g transform="translate(304.92 454.05)"><path d="m0 0c0-0.497-0.404-0.9-0.9-0.9-0.498 0-0.901 0.403-0.901 0.9s0.403 0.9 0.901 0.9c0.496 0 0.9-0.403 0.9-0.9" fill="#231f20"/></g><g transform="translate(344.56 459.4)"><path d="m0 0c0-0.497-0.404-0.9-0.9-0.9-0.498 0-0.901 0.403-0.901 0.9s0.403 0.9 0.901 0.9c0.496 0 0.9-0.403 0.9-0.9" fill="#231f20"/></g><g transform="translate(348.9 465.8)"><path d="m0 0c0-0.497-0.404-0.9-0.9-0.9-0.498 0-0.901 0.403-0.901 0.9s0.403 0.9 0.901 0.9c0.496 0 0.9-0.403 0.9-0.9" fill="#231f20"/></g><g transform="translate(354.97 474.56)"><path d="m0 0c0-0.497-0.404-0.9-0.9-0.9-0.498 0-0.901 0.403-0.901 0.9s0.403 0.9 0.901 0.9c0.496 0 0.9-0.403 0.9-0.9" fill="#231f20"/></g><g transform="translate(310.05 462.33)"><path d="m0 0c0-0.497-0.404-0.9-0.9-0.9-0.498 0-0.901 0.403-0.901 0.9s0.403 0.9 0.901 0.9c0.496 0 0.9-0.403 0.9-0.9" fill="#231f20"/></g><g transform="translate(316.68 480.98)"><path d="m0 0c0-0.497-0.404-0.9-0.9-0.9-0.498 0-0.901 0.403-0.901 0.9s0.403 0.9 0.901 0.9c0.496 0 0.9-0.403 0.9-0.9" fill="#231f20"/></g><g transform="translate(318.49 489.85)"><path d="m0 0c0-0.497-0.404-0.9-0.9-0.9-0.498 0-0.901 0.403-0.901 0.9s0.403 0.9 0.901 0.9c0.496 0 0.9-0.403 0.9-0.9" fill="#231f20"/></g><g transform="translate(290.14 475.07)"><path d="m0 0c0-0.497-0.404-0.9-0.9-0.9-0.498 0-0.901 0.403-0.901 0.9s0.403 0.9 0.901 0.9c0.496 0 0.9-0.403 0.9-0.9" fill="#231f20"/></g><g transform="translate(291.04 481.88)"><path d="m0 0c0-0.497-0.404-0.9-0.9-0.9-0.498 0-0.901 0.403-0.901 0.9s0.403 0.9 0.901 0.9c0.496 0 0.9-0.403 0.9-0.9" fill="#231f20"/></g><g transform="translate(301.08 459.84)"><path d="m0 0c0-0.497-0.404-0.9-0.9-0.9-0.498 0-0.901 0.403-0.901 0.9s0.403 0.9 0.901 0.9c0.496 0 0.9-0.403 0.9-0.9" fill="#231f20"/></g><g transform="translate(295.07 455.62)"><path d="m0 0c0-0.497-0.404-0.9-0.901-0.9s-0.9 0.403-0.9 0.9 0.403 0.9 0.9 0.9 0.901-0.403 0.901-0.9" fill="#231f20"/></g><g transform="translate(284.98 441.9)"><path d="m0 0c0-0.497-0.404-0.9-0.901-0.9s-0.9 0.403-0.9 0.9 0.403 0.9 0.9 0.9 0.901-0.403 0.901-0.9" fill="#231f20"/></g><g transform="translate(281.15 445.9)"><path d="m0 0c0-0.497-0.404-0.9-0.901-0.9s-0.9 0.403-0.9 0.9 0.403 0.9 0.9 0.9 0.901-0.403 0.901-0.9" fill="#231f20"/></g><g transform="translate(273.54 446.8)"><path d="m0 0c0-0.497-0.404-0.9-0.901-0.9s-0.9 0.403-0.9 0.9 0.403 0.9 0.9 0.9 0.901-0.403 0.901-0.9" fill="#231f20"/></g><g transform="translate(264.65 405.54)"><path d="m0 0c0-0.497-0.404-0.9-0.901-0.9s-0.9 0.403-0.9 0.9 0.403 0.9 0.9 0.9 0.901-0.403 0.901-0.9" fill="#231f20"/></g><g transform="translate(253.3 426.17)"><path d="m0 0c0-0.497-0.404-0.9-0.901-0.9s-0.9 0.403-0.9 0.9 0.403 0.9 0.9 0.9 0.901-0.403 0.901-0.9" fill="#231f20"/></g><g transform="translate(252.14 415.17)"><path d="m0 0c0-0.496-0.404-0.9-0.901-0.9s-0.9 0.404-0.9 0.9c0 0.498 0.403 0.9 0.9 0.9s0.901-0.402 0.901-0.9" fill="#231f20"/></g><g transform="translate(247.8 420.1)"><path d="m0 0c0-0.496-0.404-0.9-0.901-0.9s-0.9 0.404-0.9 0.9c0 0.498 0.403 0.9 0.9 0.9s0.901-0.402 0.901-0.9" fill="#231f20"/></g><g transform="translate(257.97 401.82)"><path d="m0 0c0-0.496-0.404-0.9-0.901-0.9s-0.9 0.404-0.9 0.9c0 0.498 0.403 0.9 0.9 0.9s0.901-0.402 0.901-0.9" fill="#231f20"/></g><g transform="translate(240.84 382.22)"><path d="m0 0c0-0.496-0.404-0.9-0.901-0.9s-0.9 0.404-0.9 0.9c0 0.498 0.403 0.9 0.9 0.9s0.901-0.402 0.901-0.9" fill="#231f20"/></g><g transform="translate(232.85 400.15)"><path d="m0 0c0-0.496-0.404-0.9-0.901-0.9s-0.9 0.404-0.9 0.9c0 0.498 0.403 0.9 0.9 0.9s0.901-0.402 0.901-0.9" fill="#231f20"/></g><g transform="translate(229.86 405.54)"><path d="m0 0c0-0.496-0.404-0.9-0.901-0.9s-0.9 0.404-0.9 0.9c0 0.498 0.403 0.9 0.9 0.9s0.901-0.402 0.901-0.9" fill="#231f20"/></g><g transform="translate(214.69 412.33)"><path d="m0 0c0-0.496-0.404-0.9-0.901-0.9s-0.9 0.404-0.9 0.9c0 0.498 0.403 0.9 0.9 0.9s0.901-0.402 0.901-0.9" fill="#231f20"/></g><g transform="translate(190.11 428.83)"><path d="m0 0c0-0.496-0.404-0.9-0.901-0.9s-0.9 0.404-0.9 0.9c0 0.498 0.403 0.9 0.9 0.9s0.901-0.402 0.901-0.9" fill="#231f20"/></g><g transform="translate(195.03 434)"><path d="m0 0c0-0.496-0.404-0.9-0.901-0.9s-0.9 0.404-0.9 0.9c0 0.498 0.403 0.9 0.9 0.9s0.901-0.402 0.901-0.9" fill="#231f20"/></g><g transform="translate(207.39 447.69)"><path d="m0 0c0-0.496-0.404-0.9-0.901-0.9s-0.9 0.404-0.9 0.9c0 0.498 0.403 0.9 0.9 0.9s0.901-0.402 0.901-0.9" fill="#231f20"/></g><g transform="translate(181.88 430.18)"><path d="m0 0c0-0.496-0.404-0.9-0.901-0.9s-0.9 0.404-0.9 0.9c0 0.498 0.403 0.9 0.9 0.9s0.901-0.402 0.901-0.9" fill="#231f20"/></g><g transform="translate(164.32 401.05)"><path d="m0 0c0-0.496-0.404-0.9-0.901-0.9s-0.9 0.404-0.9 0.9c0 0.498 0.403 0.9 0.9 0.9s0.901-0.402 0.901-0.9" fill="#231f20"/></g><g transform="translate(208.29 417.99)"><path d="m0 0c0-0.496-0.404-0.9-0.901-0.9s-0.9 0.404-0.9 0.9c0 0.498 0.403 0.9 0.9 0.9s0.901-0.402 0.901-0.9" fill="#231f20"/></g><g transform="translate(193.23 387.39)"><path d="m0 0c0-0.496-0.404-0.9-0.901-0.9s-0.9 0.404-0.9 0.9c0 0.498 0.403 0.9 0.9 0.9s0.901-0.402 0.901-0.9" fill="#231f20"/></g><g transform="translate(185.7 391.27)"><path d="m0 0c0-0.496-0.404-0.9-0.901-0.9s-0.9 0.404-0.9 0.9c0 0.498 0.403 0.9 0.9 0.9s0.901-0.402 0.901-0.9" fill="#231f20"/></g><g transform="translate(163.42 370.59)"><path d="m0 0c0-0.496-0.404-0.9-0.901-0.9s-0.9 0.404-0.9 0.9c0 0.498 0.403 0.9 0.9 0.9s0.901-0.402 0.901-0.9" fill="#231f20"/></g><g transform="translate(163.42 363.06)"><path d="m0 0c0-0.496-0.404-0.9-0.901-0.9s-0.9 0.404-0.9 0.9c0 0.498 0.403 0.9 0.9 0.9s0.901-0.402 0.901-0.9" fill="#231f20"/></g><g transform="translate(171.41 358.58)"><path d="m0 0c0-0.496-0.404-0.9-0.901-0.9s-0.9 0.404-0.9 0.9c0 0.498 0.403 0.9 0.9 0.9s0.901-0.402 0.901-0.9" fill="#231f20"/></g><g transform="translate(178.03 351.66)"><path d="m0 0c0-0.496-0.404-0.9-0.901-0.9s-0.9 0.404-0.9 0.9c0 0.498 0.403 0.9 0.9 0.9s0.901-0.402 0.901-0.9" fill="#231f20"/></g><g transform="translate(182.4 344.16)"><path d="m0 0c0-0.496-0.404-0.9-0.901-0.9s-0.9 0.404-0.9 0.9c0 0.498 0.403 0.9 0.9 0.9s0.901-0.402 0.901-0.9" fill="#231f20"/></g><g transform="translate(185.26 335.33)"><path d="m0 0c0-0.496-0.404-0.9-0.901-0.9s-0.9 0.404-0.9 0.9c0 0.498 0.403 0.9 0.9 0.9s0.901-0.402 0.901-0.9" fill="#231f20"/></g><g transform="translate(192.33 338.16)"><path d="m0 0c0-0.496-0.404-0.9-0.901-0.9s-0.9 0.404-0.9 0.9c0 0.498 0.403 0.9 0.9 0.9s0.901-0.402 0.901-0.9" fill="#231f20"/></g><g transform="translate(188.36 347.42)"><path d="m0 0c0-0.496-0.404-0.9-0.901-0.9s-0.9 0.404-0.9 0.9c0 0.498 0.403 0.9 0.9 0.9s0.901-0.402 0.901-0.9" fill="#231f20"/></g><g transform="translate(184.36 353.47)"><path d="m0 0c0-0.496-0.404-0.9-0.901-0.9s-0.9 0.404-0.9 0.9c0 0.498 0.403 0.9 0.9 0.9s0.901-0.402 0.901-0.9" fill="#231f20"/></g><g transform="translate(207.39 347.08)"><path d="m0 0c0-0.496-0.404-0.9-0.901-0.9s-0.9 0.404-0.9 0.9c0 0.498 0.403 0.9 0.9 0.9s0.901-0.402 0.901-0.9" fill="#231f20"/></g><g transform="translate(223.83 353.92)"><path d="m0 0c0-0.496-0.404-0.9-0.901-0.9s-0.9 0.404-0.9 0.9c0 0.498 0.403 0.9 0.9 0.9s0.901-0.402 0.901-0.9" fill="#231f20"/></g><g transform="translate(240.32 363.96)"><path d="m0 0c0-0.496-0.404-0.9-0.901-0.9s-0.9 0.404-0.9 0.9c0 0.498 0.403 0.9 0.9 0.9s0.901-0.402 0.901-0.9" fill="#231f20"/></g><g transform="translate(242.18 372.88)"><path d="m0 0c0-0.496-0.404-0.9-0.901-0.9s-0.9 0.404-0.9 0.9c0 0.498 0.403 0.9 0.9 0.9s0.901-0.402 0.901-0.9" fill="#231f20"/></g><g transform="translate(246.87 367.09)"><path d="m0 0c0-0.496-0.404-0.9-0.901-0.9s-0.9 0.404-0.9 0.9c0 0.498 0.403 0.9 0.9 0.9s0.901-0.402 0.901-0.9" fill="#231f20"/></g><g transform="translate(261.12 373.78)"><path d="m0 0c0-0.496-0.404-0.9-0.901-0.9s-0.9 0.404-0.9 0.9c0 0.498 0.403 0.9 0.9 0.9s0.901-0.402 0.901-0.9" fill="#231f20"/></g><g transform="translate(264.23 386.56)"><path d="m0 0c0-0.496-0.404-0.9-0.901-0.9s-0.9 0.404-0.9 0.9c0 0.498 0.403 0.9 0.9 0.9s0.901-0.402 0.901-0.9" fill="#231f20"/></g><g transform="translate(267.96 378.5)"><path d="m0 0c0-0.496-0.404-0.9-0.901-0.9s-0.9 0.404-0.9 0.9c0 0.498 0.403 0.9 0.9 0.9s0.901-0.402 0.901-0.9" fill="#231f20"/></g><g transform="translate(269.57 389.75)"><path d="m0 0c0-0.496-0.404-0.9-0.901-0.9s-0.9 0.404-0.9 0.9c0 0.498 0.403 0.9 0.9 0.9s0.901-0.402 0.901-0.9" fill="#231f20"/></g><g transform="translate(281.15 384.76)"><path d="m0 0c0-0.496-0.404-0.9-0.901-0.9s-0.9 0.404-0.9 0.9c0 0.498 0.403 0.9 0.9 0.9s0.901-0.402 0.901-0.9" fill="#231f20"/></g><g transform="translate(298 365.33)"><path d="m0 0c0-0.496-0.404-0.9-0.901-0.9s-0.9 0.404-0.9 0.9c0 0.498 0.403 0.9 0.9 0.9s0.901-0.402 0.901-0.9" fill="#231f20"/></g><g transform="translate(288.78 384.76)"><path d="m0 0c0-0.496-0.404-0.9-0.901-0.9s-0.9 0.404-0.9 0.9c0 0.498 0.403 0.9 0.9 0.9s0.901-0.402 0.901-0.9" fill="#231f20"/></g><g transform="translate(296.23 390.16)"><path d="m0 0c0-0.496-0.404-0.9-0.901-0.9s-0.9 0.404-0.9 0.9c0 0.498 0.403 0.9 0.9 0.9s0.901-0.402 0.901-0.9" fill="#231f20"/></g><g transform="translate(301.9 399.8)"><path d="m0 0c0-0.496-0.404-0.9-0.9-0.9-0.498 0-0.901 0.404-0.901 0.9 0 0.498 0.403 0.9 0.901 0.9 0.496 0 0.9-0.402 0.9-0.9" fill="#231f20"/></g><g transform="translate(307.35 414.55)"><path d="m0 0c0-0.496-0.404-0.9-0.9-0.9-0.498 0-0.901 0.404-0.901 0.9 0 0.498 0.403 0.9 0.901 0.9 0.496 0 0.9-0.402 0.9-0.9" fill="#231f20"/></g><g transform="translate(320.53 423.08)"><path d="m0 0c0-0.496-0.404-0.9-0.9-0.9-0.498 0-0.901 0.404-0.901 0.9 0 0.498 0.403 0.9 0.901 0.9 0.496 0 0.9-0.402 0.9-0.9" fill="#231f20"/></g><g transform="translate(309.15 430.75)"><path d="m0 0c0-0.496-0.404-0.9-0.9-0.9-0.498 0-0.901 0.404-0.901 0.9 0 0.498 0.403 0.9 0.901 0.9 0.496 0 0.9-0.402 0.9-0.9" fill="#231f20"/></g><g transform="translate(351.32 378.43)"><path d="m0 0c0-0.496-0.404-0.9-0.9-0.9-0.498 0-0.901 0.404-0.901 0.9 0 0.498 0.403 0.9 0.901 0.9 0.496 0 0.9-0.402 0.9-0.9" fill="#231f20"/></g><g transform="translate(353.06 361.2)"><path d="m0 0c0-0.496-0.404-0.9-0.9-0.9-0.498 0-0.901 0.404-0.901 0.9 0 0.498 0.403 0.9 0.901 0.9 0.496 0 0.9-0.402 0.9-0.9" fill="#231f20"/></g><g transform="translate(350.42 343.92)"><path d="m0 0c0-0.496-0.404-0.9-0.9-0.9-0.498 0-0.901 0.404-0.901 0.9 0 0.498 0.403 0.9 0.901 0.9 0.496 0 0.9-0.402 0.9-0.9" fill="#231f20"/></g><g transform="translate(338.39 342.12)"><path d="m0 0c0-0.496-0.404-0.9-0.9-0.9-0.498 0-0.901 0.404-0.901 0.9 0 0.498 0.403 0.9 0.901 0.9 0.496 0 0.9-0.402 0.9-0.9" fill="#231f20"/></g><g transform="translate(341.32 370.02)"><path d="m0 0c0-0.496-0.404-0.9-0.9-0.9-0.498 0-0.901 0.404-0.901 0.9 0 0.498 0.403 0.9 0.901 0.9 0.496 0 0.9-0.402 0.9-0.9" fill="#231f20"/></g><g transform="translate(334.41 355.08)"><path d="m0 0c0-0.496-0.404-0.9-0.9-0.9-0.498 0-0.901 0.404-0.901 0.9 0 0.498 0.403 0.9 0.901 0.9 0.496 0 0.9-0.402 0.9-0.9" fill="#231f20"/></g><g transform="translate(335.31 367.13)"><path d="m0 0c0-0.496-0.404-0.9-0.9-0.9-0.498 0-0.901 0.404-0.901 0.9 0 0.498 0.403 0.9 0.901 0.9 0.496 0 0.9-0.402 0.9-0.9" fill="#231f20"/></g><g transform="translate(332.65 343.02)"><path d="m0 0c0-0.496-0.404-0.9-0.9-0.9-0.498 0-0.901 0.404-0.901 0.9 0 0.498 0.403 0.9 0.901 0.9 0.496 0 0.9-0.402 0.9-0.9" fill="#231f20"/></g><g transform="translate(309.55 343.92)"><path d="m0 0c0-0.496-0.404-0.9-0.9-0.9-0.498 0-0.901 0.404-0.901 0.9 0 0.498 0.403 0.9 0.901 0.9 0.496 0 0.9-0.402 0.9-0.9" fill="#231f20"/></g><g transform="translate(302.8 341.82)"><path d="m0 0c0-0.496-0.404-0.9-0.9-0.9-0.498 0-0.901 0.404-0.901 0.9 0 0.498 0.403 0.9 0.901 0.9 0.496 0 0.9-0.402 0.9-0.9" fill="#231f20"/></g><g transform="translate(300.37 356.88)"><path d="m0 0c0-0.496-0.404-0.9-0.9-0.9-0.498 0-0.901 0.404-0.901 0.9 0 0.498 0.403 0.9 0.901 0.9 0.496 0 0.9-0.402 0.9-0.9" fill="#231f20"/></g><g transform="translate(289.68 341.22)"><path d="m0 0c0-0.496-0.404-0.9-0.9-0.9-0.498 0-0.901 0.404-0.901 0.9 0 0.498 0.403 0.9 0.901 0.9 0.496 0 0.9-0.402 0.9-0.9" fill="#231f20"/></g><g transform="translate(307.35 353.34)"><path d="m0 0c0-0.496-0.404-0.9-0.9-0.9-0.498 0-0.901 0.404-0.901 0.9 0 0.498 0.403 0.9 0.901 0.9 0.496 0 0.9-0.402 0.9-0.9" fill="#231f20"/></g><g transform="translate(302.17 370.02)"><path d="m0 0c0-0.496-0.404-0.9-0.9-0.9-0.498 0-0.901 0.404-0.901 0.9 0 0.498 0.403 0.9 0.901 0.9 0.496 0 0.9-0.402 0.9-0.9" fill="#231f20"/></g><g transform="translate(300.37 373.78)"><path d="m0 0c0-0.496-0.404-0.9-0.9-0.9-0.498 0-0.901 0.404-0.901 0.9 0 0.498 0.403 0.9 0.901 0.9 0.496 0 0.9-0.402 0.9-0.9" fill="#231f20"/></g><g transform="translate(306.01 376.62)"><path d="m0 0c0-0.496-0.404-0.9-0.9-0.9-0.498 0-0.901 0.404-0.901 0.9 0 0.498 0.403 0.9 0.901 0.9 0.496 0 0.9-0.402 0.9-0.9" fill="#231f20"/></g><g transform="translate(281.15 378.05)"><path d="m0 0c0-0.496-0.404-0.9-0.901-0.9s-0.9 0.404-0.9 0.9c0 0.498 0.403 0.9 0.9 0.9s0.901-0.402 0.901-0.9" fill="#231f20"/></g><g transform="translate(266.89 369.69)"><path d="m0 0c0-0.496-0.404-0.9-0.901-0.9s-0.9 0.404-0.9 0.9c0 0.498 0.403 0.9 0.9 0.9s0.901-0.402 0.901-0.9" fill="#231f20"/></g><g transform="translate(248.67 362.16)"><path d="m0 0c0-0.496-0.404-0.9-0.901-0.9s-0.9 0.404-0.9 0.9c0 0.498 0.403 0.9 0.9 0.9s0.901-0.402 0.901-0.9" fill="#231f20"/></g><g transform="translate(243.98 358.58)"><path d="m0 0c0-0.496-0.404-0.9-0.901-0.9s-0.9 0.404-0.9 0.9c0 0.498 0.403 0.9 0.9 0.9s0.901-0.402 0.901-0.9" fill="#231f20"/></g><g transform="translate(238.13 354.38)"><path d="m0 0c0-0.496-0.404-0.9-0.901-0.9s-0.9 0.404-0.9 0.9c0 0.498 0.403 0.9 0.9 0.9s0.901-0.402 0.901-0.9" fill="#231f20"/></g><g transform="translate(242.18 346.52)"><path d="m0 0c0-0.496-0.404-0.9-0.901-0.9s-0.9 0.404-0.9 0.9c0 0.498 0.403 0.9 0.9 0.9s0.901-0.402 0.901-0.9" fill="#231f20"/></g><g transform="translate(254.62 347.98)"><path d="m0 0c0-0.496-0.404-0.9-0.901-0.9s-0.9 0.404-0.9 0.9c0 0.498 0.403 0.9 0.9 0.9s0.901-0.402 0.901-0.9" fill="#231f20"/></g><g transform="translate(251.15 351.25)"><path d="m0 0c0-0.496-0.404-0.9-0.901-0.9s-0.9 0.404-0.9 0.9c0 0.498 0.403 0.9 0.9 0.9s0.901-0.402 0.901-0.9" fill="#231f20"/></g><g transform="translate(246.87 343.42)"><path d="m0 0c0-0.496-0.404-0.9-0.901-0.9s-0.9 0.404-0.9 0.9c0 0.498 0.403 0.9 0.9 0.9s0.901-0.402 0.901-0.9" fill="#231f20"/></g><g transform="translate(262.1 340.92)"><path d="m0 0c0-0.496-0.404-0.9-0.901-0.9s-0.9 0.404-0.9 0.9c0 0.498 0.403 0.9 0.9 0.9s0.901-0.402 0.901-0.9" fill="#231f20"/></g><g transform="translate(273.4 340.92)"><path d="m0 0c0-0.496-0.404-0.9-0.901-0.9s-0.9 0.404-0.9 0.9c0 0.498 0.403 0.9 0.9 0.9s0.901-0.402 0.901-0.9" fill="#231f20"/></g><g transform="translate(267.4 344.16)"><path d="m0 0c0-0.496-0.404-0.9-0.901-0.9s-0.9 0.404-0.9 0.9c0 0.498 0.403 0.9 0.9 0.9s0.901-0.402 0.901-0.9" fill="#231f20"/></g><g transform="translate(260.22 348.88)"><path d="m0 0c0-0.496-0.404-0.9-0.901-0.9s-0.9 0.404-0.9 0.9c0 0.498 0.403 0.9 0.9 0.9s0.901-0.402 0.901-0.9" fill="#231f20"/></g><g transform="translate(287.23 406.92)"><path d="m0 0c0-0.496-0.404-0.9-0.901-0.9s-0.9 0.404-0.9 0.9c0 0.498 0.403 0.9 0.9 0.9s0.901-0.402 0.901-0.9" fill="#231f20"/></g><g transform="translate(286.33 420.1)"><path d="m0 0c0-0.497-0.404-0.901-0.901-0.901s-0.9 0.404-0.9 0.901c0 0.498 0.403 0.9 0.9 0.9s0.901-0.402 0.901-0.9" fill="#231f20"/></g><g transform="translate(279.63 403.25)"><path d="m0 0c0-0.497-0.404-0.901-0.901-0.901s-0.9 0.404-0.9 0.901c0 0.498 0.403 0.9 0.9 0.9s0.901-0.402 0.901-0.9" fill="#231f20"/></g><g transform="translate(276.18 400.7)"><path d="m0 0c0-0.497-0.404-0.901-0.901-0.901s-0.9 0.404-0.9 0.901c0 0.498 0.403 0.9 0.9 0.9s0.901-0.402 0.901-0.9" fill="#231f20"/></g><g transform="translate(273.41 405.26)"><path d="m0 0c0-0.497-0.404-0.901-0.901-0.901s-0.9 0.404-0.9 0.901c0 0.498 0.403 0.9 0.9 0.9s0.901-0.402 0.901-0.9" fill="#231f20"/></g><g transform="translate(268.67 395.53)"><path d="m0 0c0-0.497-0.404-0.901-0.901-0.901s-0.9 0.404-0.9 0.901c0 0.498 0.403 0.9 0.9 0.9s0.901-0.402 0.901-0.9" fill="#231f20"/></g><g transform="translate(266.15 400.41)"><path d="m0 0c0-0.497-0.404-0.901-0.901-0.901s-0.9 0.404-0.9 0.901c0 0.498 0.403 0.9 0.9 0.9s0.901-0.402 0.901-0.9" fill="#231f20"/></g><g transform="translate(265.25 393.3)"><path d="m0 0c0-0.497-0.404-0.901-0.901-0.901s-0.9 0.404-0.9 0.901c0 0.498 0.403 0.9 0.9 0.9s0.901-0.402 0.901-0.9" fill="#231f20"/></g><g transform="translate(262.1 397.92)"><path d="m0 0c0-0.497-0.404-0.901-0.901-0.901s-0.9 0.404-0.9 0.901c0 0.498 0.403 0.9 0.9 0.9s0.901-0.402 0.901-0.9" fill="#231f20"/></g><g transform="translate(257.31 388.29)"><path d="m0 0c0-0.497-0.404-0.901-0.901-0.901s-0.9 0.404-0.9 0.901c0 0.498 0.403 0.9 0.9 0.9s0.901-0.402 0.901-0.9" fill="#231f20"/></g><g transform="translate(255.61 391.64)"><path d="m0 0c0-0.497-0.404-0.901-0.901-0.901s-0.9 0.404-0.9 0.901c0 0.498 0.403 0.9 0.9 0.9s0.901-0.402 0.901-0.9" fill="#231f20"/></g><g transform="translate(253.72 385.93)"><path d="m0 0c0-0.497-0.404-0.901-0.901-0.901s-0.9 0.404-0.9 0.901c0 0.498 0.403 0.9 0.9 0.9s0.901-0.402 0.901-0.9" fill="#231f20"/></g><g transform="translate(277.23 407.83)"><path d="m0 0c0-0.497-0.404-0.901-0.901-0.901s-0.9 0.404-0.9 0.901c0 0.498 0.403 0.9 0.9 0.9s0.901-0.402 0.901-0.9" fill="#231f20"/></g><g transform="translate(247.48 376.16)"><path d="m0 0c0-0.496-0.404-0.9-0.901-0.9s-0.9 0.404-0.9 0.9c0 0.498 0.403 0.9 0.9 0.9s0.901-0.402 0.901-0.9" fill="#231f20"/></g><g transform="translate(202.8 359.48)"><path d="m0 0c0-0.496-0.404-0.9-0.901-0.9s-0.9 0.404-0.9 0.9c0 0.498 0.403 0.9 0.9 0.9s0.901-0.402 0.901-0.9" fill="#231f20"/></g><g transform="translate(199.23 366.05)"><path d="m0 0c0-0.496-0.404-0.9-0.901-0.9s-0.9 0.404-0.9 0.9c0 0.498 0.403 0.9 0.9 0.9s0.901-0.402 0.901-0.9" fill="#231f20"/></g><g transform="translate(171.41 399.25)"><path d="m0 0c0-0.496-0.404-0.9-0.901-0.9s-0.9 0.404-0.9 0.9c0 0.498 0.403 0.9 0.9 0.9s0.901-0.402 0.901-0.9" fill="#231f20"/></g><g transform="translate(168.57 393.44)"><path d="m0 0c0-0.496-0.404-0.9-0.901-0.9s-0.9 0.404-0.9 0.9c0 0.498 0.403 0.9 0.9 0.9s0.901-0.402 0.901-0.9" fill="#231f20"/></g><g transform="translate(161.4 393.44)"><path d="m0 0c0-0.496-0.404-0.9-0.901-0.9s-0.9 0.404-0.9 0.9c0 0.498 0.403 0.9 0.9 0.9s0.901-0.402 0.901-0.9" fill="#231f20"/></g><g transform="translate(201.36 455.62)"><path d="m0 0c3.393 1.713 7.912 0.567 7.912 0.567" fill="none" stroke="#231f20" stroke-linecap="round" stroke-linejoin="round" stroke-miterlimit="10" stroke-width=".992"/></g><g transform="translate(337.49 397.33)"><path d="m0 0c0-4.684-3.797-8.48-8.48-8.48-4.684 0-8.481 3.796-8.481 8.48s3.797 8.48 8.481 8.48c4.683 0 8.48-3.796 8.48-8.48" fill="#fff"/></g><g transform="translate(337.49 397.33)"><path d="m0 0c0-4.684-3.797-8.48-8.48-8.48-4.684 0-8.481 3.796-8.481 8.48s3.797 8.48 8.481 8.48c4.683 0 8.48-3.796 8.48-8.48z" fill="none" stroke="#231f20" stroke-linecap="round" stroke-linejoin="round" stroke-miterlimit="10" stroke-width=".992"/></g><g transform="translate(288.78 389.23)"><path d="m0 0s18.6-26.87 16.1-57.799" fill="none" stroke="#231f20" stroke-linecap="round" stroke-linejoin="round" stroke-miterlimit="10" stroke-width=".992"/></g><g transform="translate(243.3 363.57)"><path d="m0 0s10.068-18.675 39.571-31.372" fill="none" stroke="#231f20" stroke-linecap="round" stroke-linejoin="round" stroke-miterlimit="10" stroke-width=".992"/></g><g transform="translate(253.81 350.9)"><path d="m0 0c-5.309-3.027-11.439-7.64-11.439-7.64" fill="none" stroke="#231f20" stroke-linecap="round" stroke-linejoin="round" stroke-miterlimit="10" stroke-width=".992"/></g><g transform="translate(260.22 345.41)"><path d="m0 0s24.631 6.801 41.279 15.849" fill="none" stroke="#231f20" stroke-linecap="round" stroke-linejoin="round" stroke-miterlimit="10" stroke-width=".992"/></g><g transform="translate(336.3 351.25)"><path d="m0 0c-14.675 1.626-32.188-1.624-32.188-1.624" fill="none" stroke="#231f20" stroke-linecap="round" stroke-linejoin="round" stroke-miterlimit="10" stroke-width=".992"/></g><g transform="translate(363.42 373.17)"><path d="m0 0c0-1.104-0.895-1.999-1.999-1.999-1.105 0-1.999 0.895-1.999 1.999s0.894 1.999 1.999 1.999c1.104 0 1.999-0.895 1.999-1.999" fill="#fff"/></g><g transform="translate(363.42 373.17)"><path d="m0 0c0-1.104-0.895-1.999-1.999-1.999-1.105 0-1.999 0.895-1.999 1.999s0.894 1.999 1.999 1.999c1.104 0 1.999-0.895 1.999-1.999z" fill="none" stroke="#231f20" stroke-linecap="round" stroke-linejoin="round" stroke-miterlimit="10" stroke-width=".992"/></g><g transform="translate(380.38 398.75)"><path d="m0 0c0-2.278-1.847-4.125-4.125-4.125s-4.125 1.847-4.125 4.125 1.847 4.125 4.125 4.125 4.125-1.847 4.125-4.125" fill="#fff"/></g><g transform="translate(380.38 398.75)"><path d="m0 0c0-2.278-1.847-4.125-4.125-4.125s-4.125 1.847-4.125 4.125 1.847 4.125 4.125 4.125 4.125-1.847 4.125-4.125z" fill="none" stroke="#231f20" stroke-linecap="round" stroke-linejoin="round" stroke-miterlimit="10" stroke-width=".992"/></g><g transform="translate(382.48 371.11)"><path d="m0 0c0-2.278-1.847-4.125-4.125-4.125s-4.125 1.847-4.125 4.125 1.847 4.125 4.125 4.125 4.125-1.847 4.125-4.125" fill="#fff"/></g><g transform="translate(382.48 371.11)"><path d="m0 0c0-2.278-1.847-4.125-4.125-4.125s-4.125 1.847-4.125 4.125 1.847 4.125 4.125 4.125 4.125-1.847 4.125-4.125z" fill="none" stroke="#231f20" stroke-linecap="round" stroke-linejoin="round" stroke-miterlimit="10" stroke-width=".992"/></g><g transform="translate(348,510.75)"><path d="m0 0c-15.125-12.625-43.82-47.406-48.723-56.703" fill="none" stroke="#231f20" stroke-linecap="round" stroke-linejoin="round" stroke-miterlimit="10" stroke-width=".992"/></g><g transform="translate(384 454.28)"><path d="m0 0c-9.502-5.404-27.726-17.565-28.062-18.19" fill="none" stroke="#231f20" stroke-linecap="round" stroke-linejoin="round" stroke-miterlimit="10" stroke-width=".992"/></g><g transform="translate(395.39 428.12)"><path d="m0 0c-10.386 3.756-29.912 9.665-29.912 9.665" fill="none" stroke="#231f20" stroke-linecap="round" stroke-linejoin="round" stroke-miterlimit="10" stroke-width=".992"/></g><g transform="translate(379.75 470.7)"><path d="m0 0c-3.663-4.638-51.347-38.924-51.347-38.924" fill="none" stroke="#231f20" stroke-linecap="round" stroke-linejoin="round" stroke-miterlimit="10" stroke-width=".992"/></g><g transform="translate(391.47 496.34)"><path d="m0 0c-0.091-0.264-22.286-2.255-22.286-2.255" fill="none" stroke="#231f20" stroke-linecap="round" stroke-linejoin="round" stroke-miterlimit="10" stroke-width=".992"/></g><g transform="translate(351.7 467.37)"><path d="m0 0c-0.197 1.004-11.988 35.67-11.988 35.67" fill="none" stroke="#231f20" stroke-linecap="round" stroke-linejoin="round" stroke-miterlimit="10" stroke-width=".992"/></g><g transform="translate(348.4 462.33)"><path d="m0 0-46.496-4.07" fill="none" stroke="#231f20" stroke-linecap="round" stroke-linejoin="round" stroke-miterlimit="10" stroke-width=".992"/></g><g transform="translate(329.38 552.89)"><path d="m0 0c-1.008-14.894-10.479-72.813-10.479-72.813" fill="none" stroke="#231f20" stroke-linecap="round" stroke-linejoin="round" stroke-miterlimit="10" stroke-width=".992"/></g><g transform="translate(343.5 535.11)"><path d="m0 0-18.2-13.989" fill="none" stroke="#231f20" stroke-linecap="round" stroke-linejoin="round" stroke-miterlimit="10" stroke-width=".992"/></g><g transform="translate(322.8 504.6)"><path d="m0 0-19.757 24.442" fill="none" stroke="#231f20" stroke-linecap="round" stroke-linejoin="round" stroke-miterlimit="10" stroke-width=".992"/></g><g transform="translate(321.33 495.21)"><path d="m0 0-34.615-17.846" fill="none" stroke="#231f20" stroke-linecap="round" stroke-linejoin="round" stroke-miterlimit="10" stroke-width=".992"/></g><g transform="translate(345.87 525.02)"><path d="m0 0-11.468-27.465" fill="none" stroke="#231f20" stroke-linecap="round" stroke-linejoin="round" stroke-miterlimit="10" stroke-width=".992"/></g><g transform="translate(202.39 335.12)" fill="#cfb53b"><path d="m0 0h15.446c9.157 0 13.734-3.603 13.734-10.807 0-3.571-1.568-6.54-4.702-8.907 4.546-1.973 6.82-5.491 6.82-10.557 0-3.882-1.339-6.976-4.017-9.28-1.308-1.101-2.71-1.869-4.205-2.304-1.494-0.437-3.509-0.655-6.041-0.655h-2.398v10.931h2.149c1.266 0 2.159 0.161 2.678 0.483 0.518 0.322 0.778 0.887 0.778 1.698 0 1.37-1.058 2.054-3.176 2.054h-2.429v11.336c2.325 0 3.488 0.799 3.488 2.399 0 1.473-1.049 2.211-3.146 2.211h-2.335v-31.112h-12.644z" fill="#cfb53b"/></g><g transform="translate(202.39 335.12)"><path d="m0 0h15.446c9.157 0 13.734-3.603 13.734-10.807 0-3.571-1.568-6.54-4.702-8.907 4.546-1.973 6.82-5.491 6.82-10.557 0-3.882-1.339-6.976-4.017-9.28-1.308-1.101-2.71-1.869-4.205-2.304-1.494-0.437-3.509-0.655-6.041-0.655h-2.398v10.931h2.149c1.266 0 2.159 0.161 2.678 0.483 0.518 0.322 0.778 0.887 0.778 1.698 0 1.37-1.058 2.054-3.176 2.054h-2.429v11.336c2.325 0 3.488 0.799 3.488 2.399 0 1.473-1.049 2.211-3.146 2.211h-2.335v-31.112h-12.644z" fill="none" stroke="#fff" stroke-miterlimit="10" stroke-width="5.669"/></g><g transform="translate(268.66 335.12)" fill="#cfb53b"><path d="m0 0v-27.562c0-4.858-1.448-8.74-4.344-11.647-2.896-2.906-6.753-4.359-11.57-4.359-4.795 0-8.465 1.411-11.008 4.235-2.544 2.823-3.815 6.882-3.815 12.177v27.156h12.643v-27.125c0-2.596 0.924-3.894 2.772-3.894 1.785 0 2.678 1.298 2.678 3.894v27.125z" fill="#cfb53b"/></g><g transform="translate(268.66 335.12)"><path d="m0 0v-27.562c0-4.858-1.448-8.74-4.344-11.647-2.896-2.906-6.753-4.359-11.57-4.359-4.795 0-8.465 1.411-11.008 4.235-2.544 2.823-3.815 6.882-3.815 12.177v27.156h12.643v-27.125c0-2.596 0.924-3.894 2.772-3.894 1.785 0 2.678 1.298 2.678 3.894v27.125z" fill="none" stroke="#fff" stroke-miterlimit="10" stroke-width="5.669"/></g><g transform="translate(305.07 335.12)" fill="#cfb53b"><path d="m0 0-13.204-30.302h13.049v-12.208h-32.077l13.142 30.302h-13.889v12.208z" fill="#cfb53b"/></g><g transform="translate(305.07 335.12)"><path d="m0 0-13.204-30.302h13.049v-12.208h-32.077l13.142 30.302h-13.889v12.208z" fill="none" stroke="#fff" stroke-miterlimit="10" stroke-width="5.669"/></g><g transform="translate(338.05 335.12)" fill="#cfb53b"><path d="m0 0-13.204-30.302h13.049v-12.208h-32.077l13.142 30.302h-13.889v12.208z" fill="#cfb53b"/></g><g transform="translate(338.05 335.12)"><path d="m0 0-13.204-30.302h13.049v-12.208h-32.077l13.142 30.302h-13.889v12.208z" fill="none" stroke="#fff" stroke-miterlimit="10" stroke-width="5.669"/></g><g transform="translate(342.32 335.12)" fill="#cfb53b"><path d="m0 0h15.446c9.157 0 13.735-3.603 13.735-10.807 0-3.571-1.569-6.54-4.703-8.907 4.546-1.973 6.82-5.491 6.82-10.557 0-3.882-1.339-6.976-4.018-9.28-1.307-1.101-2.709-1.869-4.204-2.304-1.494-0.437-3.509-0.655-6.041-0.655h-2.398v10.931h2.148c1.267 0 2.159 0.161 2.679 0.483 0.518 0.322 0.778 0.887 0.778 1.698 0 1.37-1.058 2.054-3.177 2.054h-2.428v11.336c2.325 0 3.488 0.799 3.488 2.399 0 1.473-1.049 2.211-3.146 2.211h-2.335v-31.112h-12.644z" fill="#cfb53b"/></g><g transform="translate(342.32 335.12)"><path d="m0 0h15.446c9.157 0 13.735-3.603 13.735-10.807 0-3.571-1.569-6.54-4.703-8.907 4.546-1.973 6.82-5.491 6.82-10.557 0-3.882-1.339-6.976-4.018-9.28-1.307-1.101-2.709-1.869-4.204-2.304-1.494-0.437-3.509-0.655-6.041-0.655h-2.398v10.931h2.148c1.267 0 2.159 0.161 2.679 0.483 0.518 0.322 0.778 0.887 0.778 1.698 0 1.37-1.058 2.054-3.177 2.054h-2.428v11.336c2.325 0 3.488 0.799 3.488 2.399 0 1.473-1.049 2.211-3.146 2.211h-2.335v-31.112h-12.644z" fill="none" stroke="#fff" stroke-miterlimit="10" stroke-width="5.669"/></g><g transform="translate(398.5 323.66)" fill="#cfb53b"><path d="m0 0c-2.596 0-4.807-0.955-6.634-2.865s-2.74-4.215-2.74-6.913c0-2.7 0.919-5.004 2.756-6.914 1.838-1.911 4.044-2.866 6.618-2.866 2.616 0 4.832 0.951 6.648 2.85 1.817 1.9 2.726 4.209 2.726 6.93 0 2.719-0.909 5.029-2.726 6.928-1.816 1.9-4.032 2.85-6.648 2.85m0.374 12.52c6.021 0 11.185-2.191 15.493-6.572s6.462-9.623 6.462-15.726c0-6.208-2.17-11.482-6.509-15.821-4.34-4.339-9.613-6.508-15.82-6.508-6.166 0-11.43 2.179-15.789 6.54-4.36 4.359-6.54 9.623-6.54 15.789 0 6.228 2.195 11.501 6.587 15.82 4.39 4.317 9.763 6.478 16.116 6.478" fill="#cfb53b"/></g><g transform="translate(398.5 323.66)"><path d="m0 0c-2.596 0-4.807-0.955-6.634-2.865s-2.74-4.215-2.74-6.913c0-2.7 0.919-5.004 2.756-6.914 1.838-1.911 4.044-2.866 6.618-2.866 2.616 0 4.832 0.951 6.648 2.85 1.817 1.9 2.726 4.209 2.726 6.93 0 2.719-0.909 5.029-2.726 6.928-1.816 1.9-4.032 2.85-6.648 2.85zm0.374 12.52c6.021 0 11.185-2.191 15.493-6.572s6.462-9.623 6.462-15.726c0-6.208-2.17-11.482-6.509-15.821-4.34-4.339-9.613-6.508-15.82-6.508-6.166 0-11.43 2.179-15.789 6.54-4.36 4.359-6.54 9.623-6.54 15.789 0 6.228 2.195 11.501 6.587 15.82 4.39 4.317 9.763 6.478 16.116 6.478z" fill="none" stroke="#fff" stroke-miterlimit="10" stroke-width="5.669"/></g><g transform="translate(445.27 322.91)" fill="#cfb53b"><path d="m0 0v-30.302h-12.644v30.302h-9.685v12.208h31.983v-12.208z" fill="#cfb53b"/></g><g transform="translate(445.27 322.91)"><path d="m0 0v-30.302h-12.644v30.302h-9.685v12.208h31.983v-12.208z" fill="none" stroke="#fff" stroke-miterlimit="10" stroke-width="5.669"/></g><g fill="#cfb53b"><g transform="translate(202.39 335.12)"><path d="m0 0h15.446c9.157 0 13.734-3.603 13.734-10.807 0-3.571-1.568-6.54-4.702-8.907 4.546-1.973 6.82-5.491 6.82-10.557 0-3.882-1.339-6.976-4.017-9.28-1.308-1.101-2.71-1.869-4.205-2.304-1.494-0.437-3.509-0.655-6.041-0.655h-2.398v10.931h2.149c1.266 0 2.159 0.161 2.678 0.483 0.518 0.322 0.778 0.887 0.778 1.698 0 1.37-1.058 2.054-3.176 2.054h-2.429v11.336c2.325 0 3.488 0.799 3.488 2.399 0 1.473-1.049 2.211-3.146 2.211h-2.335v-31.112h-12.644z" fill="#cfb53b"/></g><g transform="translate(268.66 335.12)"><path d="m0 0v-27.562c0-4.858-1.448-8.74-4.344-11.647-2.896-2.906-6.753-4.359-11.57-4.359-4.795 0-8.465 1.411-11.008 4.235-2.544 2.823-3.815 6.882-3.815 12.177v27.156h12.643v-27.125c0-2.596 0.924-3.894 2.772-3.894 1.785 0 2.678 1.298 2.678 3.894v27.125z" fill="#cfb53b"/></g><g transform="translate(305.07 335.12)"><path d="m0 0-13.204-30.302h13.049v-12.208h-32.077l13.142 30.302h-13.889v12.208z" fill="#cfb53b"/></g><g transform="translate(338.05 335.12)"><path d="m0 0-13.204-30.302h13.049v-12.208h-32.077l13.142 30.302h-13.889v12.208z" fill="#cfb53b"/></g><g transform="translate(342.32 335.12)"><path d="m0 0h15.446c9.157 0 13.735-3.603 13.735-10.807 0-3.571-1.569-6.54-4.703-8.907 4.546-1.973 6.82-5.491 6.82-10.557 0-3.882-1.339-6.976-4.018-9.28-1.307-1.101-2.709-1.869-4.204-2.304-1.494-0.437-3.509-0.655-6.041-0.655h-2.398v10.931h2.148c1.267 0 2.159 0.161 2.679 0.483 0.518 0.322 0.778 0.887 0.778 1.698 0 1.37-1.058 2.054-3.177 2.054h-2.428v11.336c2.325 0 3.488 0.799 3.488 2.399 0 1.473-1.049 2.211-3.146 2.211h-2.335v-31.112h-12.644z" fill="#cfb53b"/></g><g transform="translate(398.5 323.66)"><path d="m0 0c-2.596 0-4.807-0.955-6.634-2.865s-2.74-4.215-2.74-6.913c0-2.7 0.919-5.004 2.756-6.914 1.838-1.911 4.044-2.866 6.618-2.866 2.616 0 4.832 0.951 6.648 2.85 1.817 1.9 2.726 4.209 2.726 6.93 0 2.719-0.909 5.029-2.726 6.928-1.816 1.9-4.032 2.85-6.648 2.85m0.374 12.52c6.021 0 11.185-2.191 15.493-6.572s6.462-9.623 6.462-15.726c0-6.208-2.17-11.482-6.509-15.821-4.34-4.339-9.613-6.508-15.82-6.508-6.166 0-11.43 2.179-15.789 6.54-4.36 4.359-6.54 9.623-6.54 15.789 0 6.228 2.195 11.501 6.587 15.82 4.39 4.317 9.763 6.478 16.116 6.478" fill="#cfb53b"/></g><g transform="translate(445.27 322.91)"><path d="m0 0v-30.302h-12.644v30.302h-9.685v12.208h31.983v-12.208z" fill="#cfb53b"/></g></g></g></g></svg>
